<svg width="204" height="65" viewBox="0 0 204 65" fill="none" xmlns="http://www.w3.org/2000/svg">
<rect width="204" height="65" rx="11" fill="#FAFF00"/>
<g filter="url(#filter0_d)">
<path d="M144 52H22V12H186V52H174" stroke="black" stroke-width="3"/>
</g>
<path d="M154.44 52.256H154.56L156.312 47.696L157.968 47.744L158.016 52.904L158.244 56H156.624L156.684 52.88L156.552 49.724L155.112 53.696L153.636 53.768L152.292 49.724L152.184 52.88L152.268 56H150.78L150.948 53.084L151.02 47.936L152.928 47.636L154.44 52.256ZM159.337 53.612C160.017 54.292 160.697 54.632 161.377 54.632C161.729 54.632 162.009 54.552 162.217 54.392C162.433 54.224 162.541 54.012 162.541 53.756C162.541 53.492 162.413 53.272 162.157 53.096C161.901 52.912 161.589 52.752 161.221 52.616C160.861 52.48 160.501 52.328 160.141 52.16C159.781 51.984 159.473 51.736 159.217 51.416C158.961 51.096 158.833 50.708 158.833 50.252C158.833 49.532 159.133 48.912 159.733 48.392C160.333 47.864 161.045 47.6 161.869 47.6C162.245 47.6 162.609 47.64 162.961 47.72C163.313 47.8 163.653 47.916 163.981 48.068L163.165 49.82C162.941 49.644 162.633 49.484 162.241 49.34C161.857 49.188 161.517 49.112 161.221 49.112C160.933 49.112 160.697 49.184 160.513 49.328C160.337 49.464 160.249 49.648 160.249 49.88C160.249 50.112 160.377 50.32 160.633 50.504C160.889 50.68 161.197 50.836 161.557 50.972C161.925 51.108 162.289 51.26 162.649 51.428C163.017 51.588 163.329 51.828 163.585 52.148C163.841 52.468 163.969 52.856 163.969 53.312C163.969 54.064 163.669 54.724 163.069 55.292C162.469 55.852 161.769 56.132 160.969 56.132C160.369 56.132 159.837 55.988 159.373 55.7C158.965 55.452 158.677 55.232 158.509 55.04L158.401 54.908L159.337 53.612ZM167.124 47.72C167.892 47.72 168.504 47.94 168.96 48.38C169.416 48.812 169.644 49.408 169.644 50.168C169.644 50.928 169.356 51.58 168.78 52.124C168.204 52.66 167.5 52.928 166.668 52.928H165.984L166.128 56H164.52L164.664 53.084L164.52 47.72H167.124ZM166.692 48.932H166.104L166.02 51.764H166.836C167.236 51.764 167.544 51.632 167.76 51.368C167.984 51.104 168.096 50.728 168.096 50.24C168.096 49.368 167.628 48.932 166.692 48.932Z" fill="black"/>
<g filter="url(#filter1_d)">
<path d="M33.585 42H30.82V20.09H34.285L38.03 33.67L41.775 20.09H45.24V42H42.475V25.97L39.465 37.24H36.595L33.585 26.005V42ZM47.1169 42V37.695H50.6519V42H47.1169ZM62.8518 38.43V33.075C62.8518 32.655 62.7818 32.3867 62.6418 32.27C62.5252 32.13 62.2568 32.06 61.8368 32.06H59.2468C57.1235 32.06 56.0618 31.0217 56.0618 28.945V23.17C56.0618 21.1167 57.1468 20.09 59.3168 20.09H62.7468C64.9168 20.09 66.0018 21.1167 66.0018 23.17V26.39H62.8168V23.66C62.8168 23.24 62.7468 22.9717 62.6068 22.855C62.4668 22.715 62.1868 22.645 61.7668 22.645H60.2968C59.8768 22.645 59.5968 22.715 59.4568 22.855C59.3168 22.9717 59.2468 23.24 59.2468 23.66V28.525C59.2468 28.945 59.3168 29.225 59.4568 29.365C59.5968 29.4817 59.8768 29.54 60.2968 29.54H62.8518C64.9985 29.54 66.0718 30.5667 66.0718 32.62V38.92C66.0718 40.9733 64.9752 42 62.7818 42H59.3868C57.2168 42 56.1318 40.9733 56.1318 38.92V35.7H59.3168V38.43C59.3168 38.85 59.3868 39.13 59.5268 39.27C59.6668 39.3867 59.9468 39.445 60.3668 39.445H61.8368C62.2568 39.445 62.5252 39.3867 62.6418 39.27C62.7818 39.13 62.8518 38.85 62.8518 38.43ZM76.1983 42L75.3233 36.925H70.7033L69.8983 42H66.7483L70.6333 20.09H75.2183L79.3833 42H76.1983ZM71.0883 34.37H74.9033L72.9083 22.82L71.0883 34.37ZM88.3701 20.09H91.2751V42H88.0901L83.4701 26.18V42H80.5651V20.09H83.8901L88.3701 35.455V20.09ZM97.8792 20.09H105.054C107.224 20.09 108.309 21.1167 108.309 23.17V30.45C108.309 32.5033 107.224 33.53 105.054 33.53H101.029V42H97.8792V20.09ZM105.159 29.96V23.66C105.159 23.24 105.089 22.9717 104.949 22.855C104.809 22.715 104.529 22.645 104.109 22.645H101.029V31.01H104.109C104.529 31.01 104.809 30.94 104.949 30.8C105.089 30.66 105.159 30.38 105.159 29.96ZM118.107 42L117.232 36.925H112.612L111.807 42H108.657L112.542 20.09H117.127L121.292 42H118.107ZM112.997 34.37H116.812L114.817 22.82L112.997 34.37ZM128.774 38.43V33.075C128.774 32.655 128.704 32.3867 128.564 32.27C128.447 32.13 128.179 32.06 127.759 32.06H125.169C123.045 32.06 121.984 31.0217 121.984 28.945V23.17C121.984 21.1167 123.069 20.09 125.239 20.09H128.669C130.839 20.09 131.924 21.1167 131.924 23.17V26.39H128.739V23.66C128.739 23.24 128.669 22.9717 128.529 22.855C128.389 22.715 128.109 22.645 127.689 22.645H126.219C125.799 22.645 125.519 22.715 125.379 22.855C125.239 22.9717 125.169 23.24 125.169 23.66V28.525C125.169 28.945 125.239 29.225 125.379 29.365C125.519 29.4817 125.799 29.54 126.219 29.54H128.774C130.92 29.54 131.994 30.5667 131.994 32.62V38.92C131.994 40.9733 130.897 42 128.704 42H125.309C123.139 42 122.054 40.9733 122.054 38.92V35.7H125.239V38.43C125.239 38.85 125.309 39.13 125.449 39.27C125.589 39.3867 125.869 39.445 126.289 39.445H127.759C128.179 39.445 128.447 39.3867 128.564 39.27C128.704 39.13 128.774 38.85 128.774 38.43ZM144.15 26.95H140.93V23.59C140.93 23.17 140.86 22.9017 140.72 22.785C140.603 22.645 140.335 22.575 139.915 22.575H138.13C137.71 22.575 137.43 22.645 137.29 22.785C137.15 22.9017 137.08 23.17 137.08 23.59V38.535C137.08 38.955 137.15 39.235 137.29 39.375C137.43 39.4917 137.71 39.55 138.13 39.55H139.915C140.335 39.55 140.603 39.4917 140.72 39.375C140.86 39.235 140.93 38.955 140.93 38.535V35.21H144.15V38.92C144.15 40.9967 143.053 42.035 140.86 42.035H137.15C134.98 42.035 133.895 40.9967 133.895 38.92V23.17C133.895 21.1167 134.98 20.09 137.15 20.09H140.86C143.053 20.09 144.15 21.1167 144.15 23.17V26.95ZM153.388 20.09H156.573V38.92C156.573 40.9733 155.477 42 153.283 42H149.398C147.205 42 146.108 40.9733 146.108 38.92V20.09H149.293V38.43C149.293 38.85 149.363 39.13 149.503 39.27C149.643 39.3867 149.923 39.445 150.343 39.445H152.338C152.782 39.445 153.062 39.3867 153.178 39.27C153.318 39.13 153.388 38.85 153.388 38.43V20.09ZM167.124 42L166.249 36.925H161.629L160.824 42H157.674L161.559 20.09H166.144L170.309 42H167.124ZM162.014 34.37H165.829L163.834 22.82L162.014 34.37ZM174.641 39.445H180.066V42H171.491V20.09H174.641V39.445Z" fill="black"/>
<path d="M33.585 42V42.5H34.085V42H33.585ZM30.82 42H30.32V42.5H30.82V42ZM30.82 20.09V19.59H30.32V20.09H30.82ZM34.285 20.09L34.767 19.9571L34.6658 19.59H34.285V20.09ZM38.03 33.67L37.548 33.8029L38.03 35.5508L38.512 33.8029L38.03 33.67ZM41.775 20.09V19.59H41.3942L41.293 19.9571L41.775 20.09ZM45.24 20.09H45.74V19.59H45.24V20.09ZM45.24 42V42.5H45.74V42H45.24ZM42.475 42H41.975V42.5H42.475V42ZM42.475 25.97H42.975L41.9919 25.841L42.475 25.97ZM39.465 37.24V37.74H39.849L39.9481 37.369L39.465 37.24ZM36.595 37.24L36.112 37.3694L36.2113 37.74H36.595V37.24ZM33.585 26.005L34.068 25.8756L33.085 26.005H33.585ZM33.585 41.5H30.82V42.5H33.585V41.5ZM31.32 42V20.09H30.32V42H31.32ZM30.82 20.59H34.285V19.59H30.82V20.59ZM33.803 20.2229L37.548 33.8029L38.512 33.5371L34.767 19.9571L33.803 20.2229ZM38.512 33.8029L42.257 20.2229L41.293 19.9571L37.548 33.5371L38.512 33.8029ZM41.775 20.59H45.24V19.59H41.775V20.59ZM44.74 20.09V42H45.74V20.09H44.74ZM45.24 41.5H42.475V42.5H45.24V41.5ZM42.975 42V25.97H41.975V42H42.975ZM41.9919 25.841L38.9819 37.111L39.9481 37.369L42.9581 26.099L41.9919 25.841ZM39.465 36.74H36.595V37.74H39.465V36.74ZM37.078 37.1106L34.068 25.8756L33.102 26.1344L36.112 37.3694L37.078 37.1106ZM33.085 26.005V42H34.085V26.005H33.085ZM47.1169 42H46.6169V42.5H47.1169V42ZM47.1169 37.695V37.195H46.6169V37.695H47.1169ZM50.6519 37.695H51.1519V37.195H50.6519V37.695ZM50.6519 42V42.5H51.1519V42H50.6519ZM47.6169 42V37.695H46.6169V42H47.6169ZM47.1169 38.195H50.6519V37.195H47.1169V38.195ZM50.1519 37.695V42H51.1519V37.695H50.1519ZM50.6519 41.5H47.1169V42.5H50.6519V41.5ZM62.6418 32.27L62.2577 32.5901L62.2868 32.625L62.3217 32.6541L62.6418 32.27ZM66.0018 26.39V26.89H66.5018V26.39H66.0018ZM62.8168 26.39H62.3168V26.89H62.8168V26.39ZM62.6068 22.855L62.2533 23.2086L62.2693 23.2246L62.2867 23.2391L62.6068 22.855ZM59.4568 22.855L59.7769 23.2391L59.7944 23.2246L59.8104 23.2086L59.4568 22.855ZM59.4568 29.365L59.1033 29.7186L59.1193 29.7346L59.1367 29.7491L59.4568 29.365ZM56.1318 35.7V35.2H55.6318V35.7H56.1318ZM59.3168 35.7H59.8168V35.2H59.3168V35.7ZM59.5268 39.27L59.1733 39.6236L59.1893 39.6396L59.2067 39.6541L59.5268 39.27ZM62.6418 39.27L62.9954 39.6236V39.6236L62.6418 39.27ZM63.3518 38.43V33.075H62.3518V38.43H63.3518ZM63.3518 33.075C63.3518 32.8419 63.3329 32.6232 63.2831 32.4325C63.2347 32.2469 63.144 32.0376 62.9619 31.8859L62.3217 32.6541C62.2797 32.619 62.2939 32.6022 62.3155 32.685C62.3358 32.7626 62.3518 32.8881 62.3518 33.075H63.3518ZM63.0259 31.9499C62.8742 31.7678 62.6649 31.6771 62.4793 31.6287C62.2886 31.5789 62.07 31.56 61.8368 31.56V32.56C62.0237 32.56 62.1492 32.5761 62.2269 32.5963C62.3096 32.6179 62.2928 32.6322 62.2577 32.5901L63.0259 31.9499ZM61.8368 31.56H59.2468V32.56H61.8368V31.56ZM59.2468 31.56C58.2595 31.56 57.6113 31.3186 57.2077 30.9238C56.8061 30.531 56.5618 29.9034 56.5618 28.945H55.5618C55.5618 30.0633 55.8484 30.9931 56.5085 31.6387C57.1665 32.2823 58.1109 32.56 59.2468 32.56V31.56ZM56.5618 28.945V23.17H55.5618V28.945H56.5618ZM56.5618 23.17C56.5618 22.2277 56.8095 21.6109 57.2192 21.2232C57.6342 20.8305 58.3022 20.59 59.3168 20.59V19.59C58.1614 19.59 57.202 19.8628 56.5319 20.4968C55.8567 21.1357 55.5618 22.059 55.5618 23.17H56.5618ZM59.3168 20.59H62.7468V19.59H59.3168V20.59ZM62.7468 20.59C63.7614 20.59 64.4295 20.8305 64.8444 21.2232C65.2542 21.6109 65.5018 22.2277 65.5018 23.17H66.5018C66.5018 22.059 66.207 21.1357 65.5317 20.4968C64.8617 19.8628 63.9022 19.59 62.7468 19.59V20.59ZM65.5018 23.17V26.39H66.5018V23.17H65.5018ZM66.0018 25.89H62.8168V26.89H66.0018V25.89ZM63.3168 26.39V23.66H62.3168V26.39H63.3168ZM63.3168 23.66C63.3168 23.4269 63.2979 23.2082 63.2481 23.0175C63.1997 22.8319 63.109 22.6226 62.9269 22.4709L62.2867 23.2391C62.2447 23.204 62.2589 23.1872 62.2805 23.27C62.3008 23.3476 62.3168 23.4731 62.3168 23.66H63.3168ZM62.9604 22.5014C62.8035 22.3445 62.6032 22.26 62.4131 22.2124C62.22 22.1641 62.001 22.145 61.7668 22.145V23.145C61.9527 23.145 62.0837 23.1609 62.1706 23.1826C62.2604 23.205 62.2702 23.2255 62.2533 23.2086L62.9604 22.5014ZM61.7668 22.145H60.2968V23.145H61.7668V22.145ZM60.2968 22.145C60.0627 22.145 59.8437 22.1641 59.6506 22.2124C59.4604 22.26 59.2602 22.3445 59.1033 22.5014L59.8104 23.2086C59.7935 23.2255 59.8032 23.205 59.8931 23.1826C59.98 23.1609 60.111 23.145 60.2968 23.145V22.145ZM59.1367 22.4709C58.9547 22.6226 58.8639 22.8319 58.8155 23.0175C58.7658 23.2082 58.7468 23.4269 58.7468 23.66H59.7468C59.7468 23.4731 59.7629 23.3476 59.7831 23.27C59.8047 23.1872 59.819 23.204 59.7769 23.2391L59.1367 22.4709ZM58.7468 23.66V28.525H59.7468V23.66H58.7468ZM58.7468 28.525C58.7468 28.7591 58.766 28.9781 58.8143 29.1713C58.8618 29.3614 58.9463 29.5616 59.1033 29.7186L59.8104 29.0114C59.8273 29.0284 59.8069 29.0186 59.7844 28.9287C59.7627 28.8419 59.7468 28.7109 59.7468 28.525H58.7468ZM59.1367 29.7491C59.2956 29.8815 59.4909 29.9485 59.6699 29.9857C59.855 30.0243 60.0669 30.04 60.2968 30.04V29.04C60.1068 29.04 59.9687 29.0265 59.8738 29.0068C59.7728 28.9857 59.758 28.9651 59.7769 28.9809L59.1367 29.7491ZM60.2968 30.04H62.8518V29.04H60.2968V30.04ZM62.8518 30.04C63.8535 30.04 64.512 30.2799 64.9212 30.6713C65.3263 31.0588 65.5718 31.6762 65.5718 32.62H66.5718C66.5718 31.5105 66.2807 30.5879 65.6124 29.9487C64.9483 29.3134 63.9968 29.04 62.8518 29.04V30.04ZM65.5718 32.62V38.92H66.5718V32.62H65.5718ZM65.5718 38.92C65.5718 39.8608 65.3222 40.4769 64.9076 40.865C64.4869 41.2589 63.8093 41.5 62.7818 41.5V42.5C63.9477 42.5 64.9151 42.2278 65.591 41.595C66.2732 40.9564 66.5718 40.0325 66.5718 38.92H65.5718ZM62.7818 41.5H59.3868V42.5H62.7818V41.5ZM59.3868 41.5C58.3722 41.5 57.7042 41.2595 57.2892 40.8668C56.8795 40.4791 56.6318 39.8623 56.6318 38.92H55.6318C55.6318 40.031 55.9267 40.9543 56.6019 41.5932C57.272 42.2272 58.2314 42.5 59.3868 42.5V41.5ZM56.6318 38.92V35.7H55.6318V38.92H56.6318ZM56.1318 36.2H59.3168V35.2H56.1318V36.2ZM58.8168 35.7V38.43H59.8168V35.7H58.8168ZM58.8168 38.43C58.8168 38.6641 58.836 38.8831 58.8843 39.0763C58.9318 39.2664 59.0163 39.4666 59.1733 39.6236L59.8804 38.9164C59.8973 38.9334 59.8769 38.9236 59.8544 38.8337C59.8327 38.7469 59.8168 38.6159 59.8168 38.43H58.8168ZM59.2067 39.6541C59.3656 39.7865 59.5609 39.8535 59.7399 39.8907C59.925 39.9293 60.1369 39.945 60.3668 39.945V38.945C60.1768 38.945 60.0387 38.9315 59.9438 38.9118C59.8428 38.8907 59.828 38.8701 59.8469 38.8859L59.2067 39.6541ZM60.3668 39.945H61.8368V38.945H60.3668V39.945ZM61.8368 39.945C62.0659 39.945 62.2771 39.9295 62.4593 39.8898C62.6314 39.8524 62.8378 39.7811 62.9954 39.6236L62.2883 38.9164C62.3292 38.8756 62.3431 38.8917 62.2469 38.9127C62.1608 38.9314 62.0278 38.945 61.8368 38.945V39.945ZM62.9954 39.6236C63.1523 39.4666 63.2369 39.2664 63.2844 39.0763C63.3327 38.8831 63.3518 38.6641 63.3518 38.43H62.3518C62.3518 38.6159 62.336 38.7469 62.3143 38.8337C62.2918 38.9236 62.2713 38.9334 62.2883 38.9164L62.9954 39.6236ZM76.1983 42L75.7056 42.085L75.7771 42.5H76.1983V42ZM75.3233 36.925L75.8161 36.84L75.7445 36.425H75.3233V36.925ZM70.7033 36.925V36.425H70.2764L70.2095 36.8467L70.7033 36.925ZM69.8983 42V42.5H70.3253L70.3921 42.0783L69.8983 42ZM66.7483 42L66.256 41.9127L66.1519 42.5H66.7483V42ZM70.6333 20.09V19.59H70.2142L70.141 20.0027L70.6333 20.09ZM75.2183 20.09L75.7095 19.9966L75.6322 19.59H75.2183V20.09ZM79.3833 42V42.5H79.9873L79.8745 41.9066L79.3833 42ZM71.0883 34.37L70.5944 34.2922L70.5034 34.87H71.0883V34.37ZM74.9033 34.37V34.87H75.4971L75.396 34.2849L74.9033 34.37ZM72.9083 22.82L73.401 22.7349L72.4144 22.7422L72.9083 22.82ZM76.6911 41.915L75.8161 36.84L74.8306 37.01L75.7056 42.085L76.6911 41.915ZM75.3233 36.425H70.7033V37.425H75.3233V36.425ZM70.2095 36.8467L69.4045 41.9217L70.3921 42.0783L71.1971 37.0033L70.2095 36.8467ZM69.8983 41.5H66.7483V42.5H69.8983V41.5ZM67.2406 42.0873L71.1256 20.1773L70.141 20.0027L66.256 41.9127L67.2406 42.0873ZM70.6333 20.59H75.2183V19.59H70.6333V20.59ZM74.7271 20.1834L78.8921 42.0934L79.8745 41.9066L75.7095 19.9966L74.7271 20.1834ZM79.3833 41.5H76.1983V42.5H79.3833V41.5ZM71.0883 34.87H74.9033V33.87H71.0883V34.87ZM75.396 34.2849L73.401 22.7349L72.4156 22.9051L74.4106 34.4551L75.396 34.2849ZM72.4144 22.7422L70.5944 34.2922L71.5822 34.4478L73.4022 22.8978L72.4144 22.7422ZM88.3701 20.09V19.59H87.8701V20.09H88.3701ZM91.2751 20.09H91.7751V19.59H91.2751V20.09ZM91.2751 42V42.5H91.7751V42H91.2751ZM88.0901 42L87.6102 42.1402L87.7153 42.5H88.0901V42ZM83.4701 26.18L83.9501 26.0398L82.9701 26.18H83.4701ZM83.4701 42V42.5H83.9701V42H83.4701ZM80.5651 42H80.0651V42.5H80.5651V42ZM80.5651 20.09V19.59H80.0651V20.09H80.5651ZM83.8901 20.09L84.3701 19.95L84.2652 19.59H83.8901V20.09ZM88.3701 35.455L87.8901 35.595L88.8701 35.455H88.3701ZM88.3701 20.59H91.2751V19.59H88.3701V20.59ZM90.7751 20.09V42H91.7751V20.09H90.7751ZM91.2751 41.5H88.0901V42.5H91.2751V41.5ZM88.5701 41.8598L83.9501 26.0398L82.9902 26.3202L87.6102 42.1402L88.5701 41.8598ZM82.9701 26.18V42H83.9701V26.18H82.9701ZM83.4701 41.5H80.5651V42.5H83.4701V41.5ZM81.0651 42V20.09H80.0651V42H81.0651ZM80.5651 20.59H83.8901V19.59H80.5651V20.59ZM83.4101 20.23L87.8901 35.595L88.8501 35.315L84.3701 19.95L83.4101 20.23ZM88.8701 35.455V20.09H87.8701V35.455H88.8701ZM97.8792 20.09V19.59H97.3792V20.09H97.8792ZM101.029 33.53V33.03H100.529V33.53H101.029ZM101.029 42V42.5H101.529V42H101.029ZM97.8792 42H97.3792V42.5H97.8792V42ZM104.949 22.855L104.596 23.2086L104.612 23.2246L104.629 23.2391L104.949 22.855ZM101.029 22.645V22.145H100.529V22.645H101.029ZM101.029 31.01H100.529V31.51H101.029V31.01ZM104.949 30.8L104.596 30.4464L104.949 30.8ZM97.8792 20.59H105.054V19.59H97.8792V20.59ZM105.054 20.59C106.069 20.59 106.737 20.8305 107.152 21.2232C107.562 21.6109 107.809 22.2277 107.809 23.17H108.809C108.809 22.059 108.514 21.1357 107.839 20.4968C107.169 19.8628 106.21 19.59 105.054 19.59V20.59ZM107.809 23.17V30.45H108.809V23.17H107.809ZM107.809 30.45C107.809 31.3923 107.562 32.0091 107.152 32.3968C106.737 32.7895 106.069 33.03 105.054 33.03V34.03C106.21 34.03 107.169 33.7572 107.839 33.1232C108.514 32.4843 108.809 31.561 108.809 30.45H107.809ZM105.054 33.03H101.029V34.03H105.054V33.03ZM100.529 33.53V42H101.529V33.53H100.529ZM101.029 41.5H97.8792V42.5H101.029V41.5ZM98.3792 42V20.09H97.3792V42H98.3792ZM105.659 29.96V23.66H104.659V29.96H105.659ZM105.659 23.66C105.659 23.4269 105.64 23.2082 105.59 23.0175C105.542 22.8319 105.451 22.6226 105.269 22.4709L104.629 23.2391C104.587 23.204 104.601 23.1872 104.623 23.27C104.643 23.3476 104.659 23.4731 104.659 23.66H105.659ZM105.303 22.5014C105.146 22.3445 104.946 22.26 104.755 22.2124C104.562 22.1641 104.343 22.145 104.109 22.145V23.145C104.295 23.145 104.426 23.1609 104.513 23.1826C104.603 23.205 104.613 23.2255 104.596 23.2086L105.303 22.5014ZM104.109 22.145H101.029V23.145H104.109V22.145ZM100.529 22.645V31.01H101.529V22.645H100.529ZM101.029 31.51H104.109V30.51H101.029V31.51ZM104.109 31.51C104.343 31.51 104.562 31.4909 104.755 31.4426C104.946 31.395 105.146 31.3105 105.303 31.1536L104.596 30.4464C104.613 30.4295 104.603 30.45 104.513 30.4724C104.426 30.4941 104.295 30.51 104.109 30.51V31.51ZM105.303 31.1536C105.46 30.9966 105.544 30.7964 105.592 30.6063C105.64 30.4131 105.659 30.1941 105.659 29.96H104.659C104.659 30.1459 104.643 30.2769 104.622 30.3637C104.599 30.4536 104.579 30.4634 104.596 30.4464L105.303 31.1536ZM118.107 42L117.614 42.085L117.686 42.5H118.107V42ZM117.232 36.925L117.724 36.84L117.653 36.425H117.232V36.925ZM112.612 36.925V36.425H112.185L112.118 36.8467L112.612 36.925ZM111.807 42V42.5H112.234L112.301 42.0783L111.807 42ZM108.657 42L108.164 41.9127L108.06 42.5H108.657V42ZM112.542 20.09V19.59H112.123L112.049 20.0027L112.542 20.09ZM117.127 20.09L117.618 19.9966L117.541 19.59H117.127V20.09ZM121.292 42V42.5H121.896L121.783 41.9066L121.292 42ZM112.997 34.37L112.503 34.2922L112.412 34.87H112.997V34.37ZM116.812 34.37V34.87H117.405L117.304 34.2849L116.812 34.37ZM114.817 22.82L115.309 22.7349L114.323 22.7422L114.817 22.82ZM118.599 41.915L117.724 36.84L116.739 37.01L117.614 42.085L118.599 41.915ZM117.232 36.425H112.612V37.425H117.232V36.425ZM112.118 36.8467L111.313 41.9217L112.301 42.0783L113.106 37.0033L112.118 36.8467ZM111.807 41.5H108.657V42.5H111.807V41.5ZM109.149 42.0873L113.034 20.1773L112.049 20.0027L108.164 41.9127L109.149 42.0873ZM112.542 20.59H117.127V19.59H112.542V20.59ZM116.636 20.1834L120.801 42.0934L121.783 41.9066L117.618 19.9966L116.636 20.1834ZM121.292 41.5H118.107V42.5H121.292V41.5ZM112.997 34.87H116.812V33.87H112.997V34.87ZM117.304 34.2849L115.309 22.7349L114.324 22.9051L116.319 34.4551L117.304 34.2849ZM114.323 22.7422L112.503 34.2922L113.491 34.4478L115.311 22.8978L114.323 22.7422ZM128.564 32.27L128.179 32.5901L128.209 32.625L128.243 32.6541L128.564 32.27ZM131.924 26.39V26.89H132.424V26.39H131.924ZM128.739 26.39H128.239V26.89H128.739V26.39ZM128.529 22.855L128.175 23.2086L128.191 23.2246L128.208 23.2391L128.529 22.855ZM125.379 22.855L125.699 23.2391L125.716 23.2246L125.732 23.2086L125.379 22.855ZM125.379 29.365L125.025 29.7186L125.041 29.7346L125.058 29.7491L125.379 29.365ZM122.054 35.7V35.2H121.554V35.7H122.054ZM125.239 35.7H125.739V35.2H125.239V35.7ZM125.449 39.27L125.095 39.6236L125.111 39.6396L125.128 39.6541L125.449 39.27ZM128.564 39.27L128.917 39.6236V39.6236L128.564 39.27ZM129.274 38.43V33.075H128.274V38.43H129.274ZM129.274 33.075C129.274 32.8419 129.255 32.6232 129.205 32.4325C129.156 32.2469 129.066 32.0376 128.884 31.8859L128.243 32.6541C128.201 32.619 128.216 32.6022 128.237 32.685C128.257 32.7626 128.274 32.8881 128.274 33.075H129.274ZM128.948 31.9499C128.796 31.7678 128.587 31.6771 128.401 31.6287C128.21 31.5789 127.992 31.56 127.759 31.56V32.56C127.945 32.56 128.071 32.5761 128.149 32.5963C128.231 32.6179 128.214 32.6322 128.179 32.5901L128.948 31.9499ZM127.759 31.56H125.169V32.56H127.759V31.56ZM125.169 31.56C124.181 31.56 123.533 31.3186 123.129 30.9238C122.728 30.531 122.484 29.9034 122.484 28.945H121.484C121.484 30.0633 121.77 30.9931 122.43 31.6387C123.088 32.2823 124.033 32.56 125.169 32.56V31.56ZM122.484 28.945V23.17H121.484V28.945H122.484ZM122.484 23.17C122.484 22.2277 122.731 21.6109 123.141 21.2232C123.556 20.8305 124.224 20.59 125.239 20.59V19.59C124.083 19.59 123.124 19.8628 122.454 20.4968C121.778 21.1357 121.484 22.059 121.484 23.17H122.484ZM125.239 20.59H128.669V19.59H125.239V20.59ZM128.669 20.59C129.683 20.59 130.351 20.8305 130.766 21.2232C131.176 21.6109 131.424 22.2277 131.424 23.17H132.424C132.424 22.059 132.129 21.1357 131.453 20.4968C130.783 19.8628 129.824 19.59 128.669 19.59V20.59ZM131.424 23.17V26.39H132.424V23.17H131.424ZM131.924 25.89H128.739V26.89H131.924V25.89ZM129.239 26.39V23.66H128.239V26.39H129.239ZM129.239 23.66C129.239 23.4269 129.22 23.2082 129.17 23.0175C129.121 22.8319 129.031 22.6226 128.849 22.4709L128.208 23.2391C128.166 23.204 128.181 23.1872 128.202 23.27C128.222 23.3476 128.239 23.4731 128.239 23.66H129.239ZM128.882 22.5014C128.725 22.3445 128.525 22.26 128.335 22.2124C128.142 22.1641 127.923 22.145 127.689 22.145V23.145C127.874 23.145 128.005 23.1609 128.092 23.1826C128.182 23.205 128.192 23.2255 128.175 23.2086L128.882 22.5014ZM127.689 22.145H126.219V23.145H127.689V22.145ZM126.219 22.145C125.984 22.145 125.765 22.1641 125.572 22.2124C125.382 22.26 125.182 22.3445 125.025 22.5014L125.732 23.2086C125.715 23.2255 125.725 23.205 125.815 23.1826C125.902 23.1609 126.033 23.145 126.219 23.145V22.145ZM125.058 22.4709C124.876 22.6226 124.786 22.8319 124.737 23.0175C124.687 23.2082 124.669 23.4269 124.669 23.66H125.669C125.669 23.4731 125.685 23.3476 125.705 23.27C125.726 23.1872 125.741 23.204 125.699 23.2391L125.058 22.4709ZM124.669 23.66V28.525H125.669V23.66H124.669ZM124.669 28.525C124.669 28.7591 124.688 28.9781 124.736 29.1713C124.783 29.3614 124.868 29.5616 125.025 29.7186L125.732 29.0114C125.749 29.0284 125.729 29.0186 125.706 28.9287C125.684 28.8419 125.669 28.7109 125.669 28.525H124.669ZM125.058 29.7491C125.217 29.8815 125.413 29.9485 125.592 29.9857C125.777 30.0243 125.989 30.04 126.219 30.04V29.04C126.028 29.04 125.89 29.0265 125.795 29.0068C125.694 28.9857 125.68 28.9651 125.699 28.9809L125.058 29.7491ZM126.219 30.04H128.774V29.04H126.219V30.04ZM128.774 30.04C129.775 30.04 130.434 30.2799 130.843 30.6713C131.248 31.0588 131.494 31.6762 131.494 32.62H132.494C132.494 31.5105 132.202 30.5879 131.534 29.9487C130.87 29.3134 129.919 29.04 128.774 29.04V30.04ZM131.494 32.62V38.92H132.494V32.62H131.494ZM131.494 38.92C131.494 39.8608 131.244 40.4769 130.829 40.865C130.409 41.2589 129.731 41.5 128.704 41.5V42.5C129.869 42.5 130.837 42.2278 131.513 41.595C132.195 40.9564 132.494 40.0325 132.494 38.92H131.494ZM128.704 41.5H125.309V42.5H128.704V41.5ZM125.309 41.5C124.294 41.5 123.626 41.2595 123.211 40.8668C122.801 40.4791 122.554 39.8623 122.554 38.92H121.554C121.554 40.031 121.848 40.9543 122.524 41.5932C123.194 42.2272 124.153 42.5 125.309 42.5V41.5ZM122.554 38.92V35.7H121.554V38.92H122.554ZM122.054 36.2H125.239V35.2H122.054V36.2ZM124.739 35.7V38.43H125.739V35.7H124.739ZM124.739 38.43C124.739 38.6641 124.758 38.8831 124.806 39.0763C124.853 39.2664 124.938 39.4666 125.095 39.6236L125.802 38.9164C125.819 38.9334 125.799 38.9236 125.776 38.8337C125.754 38.7469 125.739 38.6159 125.739 38.43H124.739ZM125.128 39.6541C125.287 39.7865 125.483 39.8535 125.662 39.8907C125.847 39.9293 126.059 39.945 126.289 39.945V38.945C126.098 38.945 125.96 38.9315 125.865 38.9118C125.764 38.8907 125.75 38.8701 125.769 38.8859L125.128 39.6541ZM126.289 39.945H127.759V38.945H126.289V39.945ZM127.759 39.945C127.988 39.945 128.199 39.9295 128.381 39.8898C128.553 39.8524 128.76 39.7811 128.917 39.6236L128.21 38.9164C128.251 38.8756 128.265 38.8917 128.169 38.9127C128.082 38.9314 127.949 38.945 127.759 38.945V39.945ZM128.917 39.6236C129.074 39.4666 129.159 39.2664 129.206 39.0763C129.254 38.8831 129.274 38.6641 129.274 38.43H128.274C128.274 38.6159 128.258 38.7469 128.236 38.8337C128.213 38.9236 128.193 38.9334 128.21 38.9164L128.917 39.6236ZM144.15 26.95V27.45H144.65V26.95H144.15ZM140.93 26.95H140.43V27.45H140.93V26.95ZM140.72 22.785L140.336 23.1051L140.365 23.14L140.4 23.1691L140.72 22.785ZM137.29 22.785L137.61 23.1691L137.628 23.1546L137.644 23.1386L137.29 22.785ZM137.29 39.375L136.936 39.7286L136.952 39.7446L136.97 39.7591L137.29 39.375ZM140.72 39.375L140.366 39.0214L140.72 39.375ZM140.93 35.21V34.71H140.43V35.21H140.93ZM144.15 35.21H144.65V34.71H144.15V35.21ZM144.15 26.45H140.93V27.45H144.15V26.45ZM141.43 26.95V23.59H140.43V26.95H141.43ZM141.43 23.59C141.43 23.3569 141.411 23.1382 141.361 22.9475C141.313 22.7619 141.222 22.5526 141.04 22.4009L140.4 23.1691C140.358 23.134 140.372 23.1172 140.394 23.2C140.414 23.2776 140.43 23.4031 140.43 23.59H141.43ZM141.104 22.4649C140.952 22.2828 140.743 22.1921 140.557 22.1437C140.367 22.0939 140.148 22.075 139.915 22.075V23.075C140.102 23.075 140.227 23.0911 140.305 23.1113C140.388 23.1329 140.371 23.1472 140.336 23.1051L141.104 22.4649ZM139.915 22.075H138.13V23.075H139.915V22.075ZM138.13 22.075C137.896 22.075 137.677 22.0941 137.484 22.1424C137.294 22.19 137.093 22.2745 136.936 22.4314L137.644 23.1386C137.627 23.1555 137.636 23.135 137.726 23.1126C137.813 23.0909 137.944 23.075 138.13 23.075V22.075ZM136.97 22.4009C136.788 22.5526 136.697 22.7619 136.649 22.9475C136.599 23.1382 136.58 23.3569 136.58 23.59H137.58C137.58 23.4031 137.596 23.2776 137.616 23.2C137.638 23.1172 137.652 23.134 137.61 23.1691L136.97 22.4009ZM136.58 23.59V38.535H137.58V23.59H136.58ZM136.58 38.535C136.58 38.7691 136.599 38.9881 136.647 39.1813C136.695 39.3714 136.78 39.5716 136.936 39.7286L137.644 39.0214C137.66 39.0384 137.64 39.0286 137.618 38.9387C137.596 38.8519 137.58 38.7209 137.58 38.535H136.58ZM136.97 39.7591C137.129 39.8915 137.324 39.9585 137.503 39.9957C137.688 40.0343 137.9 40.05 138.13 40.05V39.05C137.94 39.05 137.802 39.0365 137.707 39.0168C137.606 38.9957 137.591 38.9751 137.61 38.9909L136.97 39.7591ZM138.13 40.05H139.915V39.05H138.13V40.05ZM139.915 40.05C140.144 40.05 140.355 40.0345 140.537 39.9948C140.71 39.9574 140.916 39.8861 141.074 39.7286L140.366 39.0214C140.407 38.9806 140.421 38.9967 140.325 39.0177C140.239 39.0364 140.106 39.05 139.915 39.05V40.05ZM141.074 39.7286C141.23 39.5716 141.315 39.3714 141.363 39.1813C141.411 38.9881 141.43 38.7691 141.43 38.535H140.43C140.43 38.7209 140.414 38.8519 140.392 38.9387C140.37 39.0286 140.35 39.0384 140.366 39.0214L141.074 39.7286ZM141.43 38.535V35.21H140.43V38.535H141.43ZM140.93 35.71H144.15V34.71H140.93V35.71ZM143.65 35.21V38.92H144.65V35.21H143.65ZM143.65 38.92C143.65 39.8741 143.399 40.4996 142.984 40.8932C142.563 41.2916 141.886 41.535 140.86 41.535V42.535C142.027 42.535 142.995 42.2592 143.671 41.6193C144.352 40.9746 144.65 40.0426 144.65 38.92H143.65ZM140.86 41.535H137.15V42.535H140.86V41.535ZM137.15 41.535C136.137 41.535 135.47 41.2922 135.054 40.895C134.643 40.5017 134.395 39.8755 134.395 38.92H133.395C133.395 40.0411 133.689 40.9724 134.363 41.6175C135.033 42.2586 135.993 42.535 137.15 42.535V41.535ZM134.395 38.92V23.17H133.395V38.92H134.395ZM134.395 23.17C134.395 22.2277 134.643 21.6109 135.052 21.2232C135.467 20.8305 136.135 20.59 137.15 20.59V19.59C135.995 19.59 135.035 19.8628 134.365 20.4968C133.69 21.1357 133.395 22.059 133.395 23.17H134.395ZM137.15 20.59H140.86V19.59H137.15V20.59ZM140.86 20.59C141.887 20.59 142.565 20.8311 142.986 21.225C143.4 21.6131 143.65 22.2292 143.65 23.17H144.65C144.65 22.0575 144.351 21.1336 143.669 20.495C142.993 19.8622 142.026 19.59 140.86 19.59V20.59ZM143.65 23.17V26.95H144.65V23.17H143.65ZM153.388 20.09V19.59H152.888V20.09H153.388ZM156.573 20.09H157.073V19.59H156.573V20.09ZM146.108 20.09V19.59H145.608V20.09H146.108ZM149.293 20.09H149.793V19.59H149.293V20.09ZM149.503 39.27L149.15 39.6236L149.166 39.6396L149.183 39.6541L149.503 39.27ZM153.178 39.27L153.532 39.6236L153.532 39.6236L153.178 39.27ZM153.388 20.59H156.573V19.59H153.388V20.59ZM156.073 20.09V38.92H157.073V20.09H156.073ZM156.073 38.92C156.073 39.8608 155.824 40.4769 155.409 40.865C154.988 41.2589 154.311 41.5 153.283 41.5V42.5C154.449 42.5 155.417 42.2278 156.093 41.595C156.775 40.9564 157.073 40.0325 157.073 38.92H156.073ZM153.283 41.5H149.398V42.5H153.283V41.5ZM149.398 41.5C148.371 41.5 147.693 41.2589 147.273 40.865C146.858 40.4769 146.608 39.8608 146.608 38.92H145.608C145.608 40.0325 145.907 40.9564 146.589 41.595C147.265 42.2278 148.233 42.5 149.398 42.5V41.5ZM146.608 38.92V20.09H145.608V38.92H146.608ZM146.108 20.59H149.293V19.59H146.108V20.59ZM148.793 20.09V38.43H149.793V20.09H148.793ZM148.793 38.43C148.793 38.6641 148.812 38.8831 148.861 39.0763C148.908 39.2664 148.993 39.4666 149.15 39.6236L149.857 38.9164C149.874 38.9334 149.853 38.9236 149.831 38.8337C149.809 38.7469 149.793 38.6159 149.793 38.43H148.793ZM149.183 39.6541C149.342 39.7865 149.537 39.8535 149.716 39.8907C149.902 39.9293 150.113 39.945 150.343 39.945V38.945C150.153 38.945 150.015 38.9315 149.92 38.9118C149.819 38.8907 149.805 38.8701 149.823 38.8859L149.183 39.6541ZM150.343 39.945H152.338V38.945H150.343V39.945ZM152.338 39.945C152.578 39.945 152.796 39.9296 152.983 39.8907C153.156 39.8546 153.371 39.7847 153.532 39.6236L152.825 38.9164C152.869 38.8719 152.885 38.8896 152.779 38.9118C152.685 38.9312 152.542 38.945 152.338 38.945V39.945ZM153.532 39.6236C153.689 39.4666 153.773 39.2664 153.821 39.0763C153.869 38.8831 153.888 38.6641 153.888 38.43H152.888C152.888 38.6159 152.872 38.7469 152.851 38.8337C152.828 38.9236 152.808 38.9334 152.825 38.9164L153.532 39.6236ZM153.888 38.43V20.09H152.888V38.43H153.888ZM167.124 42L166.632 42.085L166.703 42.5H167.124V42ZM166.249 36.925L166.742 36.84L166.671 36.425H166.249V36.925ZM161.629 36.925V36.425H161.203L161.136 36.8467L161.629 36.925ZM160.824 42V42.5H161.251L161.318 42.0783L160.824 42ZM157.674 42L157.182 41.9127L157.078 42.5H157.674V42ZM161.559 20.09V19.59H161.14L161.067 20.0027L161.559 20.09ZM166.144 20.09L166.636 19.9966L166.558 19.59H166.144V20.09ZM170.309 42V42.5H170.913L170.801 41.9066L170.309 42ZM162.014 34.37L161.521 34.2922L161.43 34.87H162.014V34.37ZM165.829 34.37V34.87H166.423L166.322 34.2849L165.829 34.37ZM163.834 22.82L164.327 22.7349L163.341 22.7422L163.834 22.82ZM167.617 41.915L166.742 36.84L165.757 37.01L166.632 42.085L167.617 41.915ZM166.249 36.425H161.629V37.425H166.249V36.425ZM161.136 36.8467L160.331 41.9217L161.318 42.0783L162.123 37.0033L161.136 36.8467ZM160.824 41.5H157.674V42.5H160.824V41.5ZM158.167 42.0873L162.052 20.1773L161.067 20.0027L157.182 41.9127L158.167 42.0873ZM161.559 20.59H166.144V19.59H161.559V20.59ZM165.653 20.1834L169.818 42.0934L170.801 41.9066L166.636 19.9966L165.653 20.1834ZM170.309 41.5H167.124V42.5H170.309V41.5ZM162.014 34.87H165.829V33.87H162.014V34.87ZM166.322 34.2849L164.327 22.7349L163.342 22.9051L165.337 34.4551L166.322 34.2849ZM163.341 22.7422L161.521 34.2922L162.508 34.4478L164.328 22.8978L163.341 22.7422ZM174.641 39.445H174.141V39.945H174.641V39.445ZM180.066 39.445H180.566V38.945H180.066V39.445ZM180.066 42V42.5H180.566V42H180.066ZM171.491 42H170.991V42.5H171.491V42ZM171.491 20.09V19.59H170.991V20.09H171.491ZM174.641 20.09H175.141V19.59H174.641V20.09ZM174.641 39.945H180.066V38.945H174.641V39.945ZM179.566 39.445V42H180.566V39.445H179.566ZM180.066 41.5H171.491V42.5H180.066V41.5ZM171.991 42V20.09H170.991V42H171.991ZM171.491 20.59H174.641V19.59H171.491V20.59ZM174.141 20.09V39.445H175.141V20.09H174.141Z" fill="black"/>
</g>
<defs>
<filter id="filter0_d" x="16.5" y="7.5" width="175" height="51" filterUnits="userSpaceOnUse" color-interpolation-filters="sRGB">
<feFlood flood-opacity="0" result="BackgroundImageFix"/>
<feColorMatrix in="SourceAlpha" type="matrix" values="0 0 0 0 0 0 0 0 0 0 0 0 0 0 0 0 0 0 127 0"/>
<feOffset dy="1"/>
<feGaussianBlur stdDeviation="2"/>
<feColorMatrix type="matrix" values="0 0 0 0 0 0 0 0 0 0 0 0 0 0 0 0 0 0 0.25 0"/>
<feBlend mode="normal" in2="BackgroundImageFix" result="effect1_dropShadow"/>
<feBlend mode="normal" in="SourceGraphic" in2="effect1_dropShadow" result="shape"/>
</filter>
<filter id="filter1_d" x="22.32" y="14.59" width="166.246" height="38.945" filterUnits="userSpaceOnUse" color-interpolation-filters="sRGB">
<feFlood flood-opacity="0" result="BackgroundImageFix"/>
<feColorMatrix in="SourceAlpha" type="matrix" values="0 0 0 0 0 0 0 0 0 0 0 0 0 0 0 0 0 0 127 0"/>
<feOffset dy="3"/>
<feGaussianBlur stdDeviation="4"/>
<feColorMatrix type="matrix" values="0 0 0 0 0 0 0 0 0 0 0 0 0 0 0 0 0 0 0.49 0"/>
<feBlend mode="normal" in2="BackgroundImageFix" result="effect1_dropShadow"/>
<feBlend mode="normal" in="SourceGraphic" in2="effect1_dropShadow" result="shape"/>
</filter>
</defs>
</svg>
