<svg width="1440" height="1024" viewBox="0 0 1440 1024" fill="none" xmlns="http://www.w3.org/2000/svg">
<rect width="1440" height="1024" fill="white"/>
<g filter="url(#filter0_d)">
<path d="M311.82 558H304.8V529.11H313.395L318.075 544.545L322.755 529.11H331.35V558H324.375V539.64L320.775 551.745H315.375L311.82 539.73V558ZM332.246 558V550.62H339.986V558H332.246ZM358.263 551.385V547.29C358.263 546.63 357.888 546.3 357.138 546.3H352.818C350.598 546.3 349.023 545.82 348.093 544.86C347.193 543.87 346.743 542.46 346.743 540.63V534.69C346.743 530.97 348.933 529.11 353.313 529.11H359.478C363.858 529.11 366.048 530.97 366.048 534.69V538.155H358.173V535.725C358.173 535.065 357.798 534.735 357.048 534.735H355.743C354.993 534.735 354.618 535.065 354.618 535.725V540C354.618 540.66 354.993 540.99 355.743 540.99H359.973C362.193 540.99 363.768 541.455 364.698 542.385C365.658 543.315 366.138 544.68 366.138 546.48V552.42C366.138 556.14 363.948 558 359.568 558H353.448C349.038 558 346.833 556.14 346.833 552.42V548.955H354.708V551.385C354.708 552.045 355.083 552.375 355.833 552.375H357.138C357.888 552.375 358.263 552.045 358.263 551.385ZM381.313 558L380.413 553.68H373.483L372.538 558H364.798L372.223 529.11H381.808L389.233 558H381.313ZM374.698 548.1H379.198L376.993 537.705L374.698 548.1ZM401.516 529.11H408.716V558H401.966L395.531 542.835V558H388.331V529.11H395.081L401.516 544.545V529.11ZM415.934 529.11H429.299C433.709 529.11 435.914 530.97 435.914 534.69V542.97C435.914 546.69 433.709 548.55 429.299 548.55H423.809V558H415.934V529.11ZM428.039 541.935V535.725C428.039 535.065 427.664 534.735 426.914 534.735H423.809V542.925H426.914C427.664 542.925 428.039 542.595 428.039 541.935ZM450.625 558L449.725 553.68H442.795L441.85 558H434.11L441.535 529.11H451.12L458.545 558H450.625ZM444.01 548.1H448.51L446.305 537.705L444.01 548.1ZM468.714 551.385V547.29C468.714 546.63 468.339 546.3 467.589 546.3H463.269C461.049 546.3 459.474 545.82 458.544 544.86C457.644 543.87 457.194 542.46 457.194 540.63V534.69C457.194 530.97 459.384 529.11 463.764 529.11H469.929C474.309 529.11 476.499 530.97 476.499 534.69V538.155H468.624V535.725C468.624 535.065 468.249 534.735 467.499 534.735H466.194C465.444 534.735 465.069 535.065 465.069 535.725V540C465.069 540.66 465.444 540.99 466.194 540.99H470.424C472.644 540.99 474.219 541.455 475.149 542.385C476.109 543.315 476.589 544.68 476.589 546.48V552.42C476.589 556.14 474.399 558 470.019 558H463.899C459.489 558 457.284 556.14 457.284 552.42V548.955H465.159V551.385C465.159 552.045 465.534 552.375 466.284 552.375H467.589C468.339 552.375 468.714 552.045 468.714 551.385ZM496.398 539.91H488.523V535.275C488.523 534.615 488.148 534.285 487.398 534.285H485.823C485.073 534.285 484.698 534.615 484.698 535.275V551.835C484.698 552.495 485.073 552.825 485.823 552.825H487.398C488.148 552.825 488.523 552.495 488.523 551.835V547.38H496.398V552.42C496.398 556.14 494.193 558 489.783 558H483.438C479.028 558 476.823 556.14 476.823 552.42V534.69C476.823 530.97 479.028 529.11 483.438 529.11H489.783C494.193 529.11 496.398 530.97 496.398 534.69V539.91ZM508.643 529.11H516.518V552.42C516.518 556.14 514.313 558 509.903 558H503.243C498.833 558 496.628 556.14 496.628 552.42V529.11H504.503V551.385C504.503 552.045 504.878 552.375 505.628 552.375H507.518C508.268 552.375 508.643 552.045 508.643 551.385V529.11ZM532.154 558L531.254 553.68H524.324L523.379 558H515.639L523.064 529.11H532.649L540.074 558H532.154ZM525.539 548.1H530.039L527.834 537.705L525.539 548.1ZM547.048 552.375H556.003V558H539.173V529.11H547.048V552.375Z" fill="white"/>
</g>
<path d="M499.5 582H293.5V512H571.5V582H550.5" stroke="white" stroke-width="2"/>
<path d="M523.312 572.016C523.696 572.016 523.944 572.296 524.056 572.856C524.136 575.464 524.176 578.312 524.176 581.4C524.176 584.472 524.16 586.248 524.128 586.728C524.096 587.208 523.992 587.544 523.816 587.736C523.64 587.928 523.32 588.024 522.856 588.024C522.44 588.024 522.232 587.768 522.232 587.256V581.832C522.232 580.952 522.216 580.048 522.184 579.12C522.152 578.192 522.136 577.608 522.136 577.368C521.592 578.296 520.872 579.064 519.976 579.672C519.08 580.264 518.08 580.56 516.976 580.56C515.872 580.56 514.944 580.104 514.192 579.192C514.16 580.168 514.144 581.328 514.144 582.672C514.144 584 514.152 585.4 514.168 586.872C514.168 587.272 514.032 587.568 513.76 587.76C513.504 587.936 513.208 588.024 512.872 588.024C512.44 588.024 512.224 587.76 512.224 587.232C512.24 585.792 512.248 583.512 512.248 580.392V573.576C512.248 573.304 512.336 573.04 512.512 572.784C512.704 572.528 512.92 572.4 513.16 572.4C513.416 572.4 513.648 572.472 513.856 572.616C514.064 572.744 514.176 572.944 514.192 573.216C514.256 574.992 514.544 576.312 515.056 577.176C515.568 578.04 516.176 578.472 516.88 578.472C517.584 578.472 518.184 578.36 518.68 578.136C519.192 577.896 519.608 577.624 519.928 577.32C520.264 577.016 520.584 576.584 520.888 576.024C521.32 575.224 521.736 574.24 522.136 573.072C522.376 572.368 522.768 572.016 523.312 572.016ZM530.217 572.112C531.257 572.112 532.137 572.288 532.857 572.64C533.593 572.992 533.961 573.44 533.961 573.984C533.961 574.224 533.897 574.432 533.769 574.608C533.657 574.784 533.481 574.872 533.241 574.872C533.017 574.872 532.521 574.696 531.753 574.344C530.985 573.976 530.281 573.792 529.641 573.792C529.017 573.792 528.369 573.992 527.697 574.392C527.025 574.792 526.689 575.28 526.689 575.856C526.689 576.64 527.097 577.216 527.913 577.584C528.521 577.856 529.393 578.104 530.529 578.328C531.665 578.536 532.593 578.976 533.313 579.648C534.033 580.304 534.393 581.304 534.393 582.648C534.393 584.696 533.777 586.208 532.545 587.184C531.857 587.728 530.881 588 529.617 588C528.369 588 527.121 587.656 525.873 586.968C525.057 586.536 524.649 586.104 524.649 585.672C524.649 585.512 524.713 585.336 524.841 585.144C524.985 584.952 525.177 584.792 525.417 584.664C525.657 584.536 525.873 584.52 526.065 584.616C526.273 584.696 526.601 584.848 527.049 585.072C527.497 585.296 527.825 585.448 528.033 585.528C528.705 585.784 529.337 585.912 529.929 585.912C530.521 585.912 531.089 585.624 531.633 585.048C532.193 584.456 532.473 583.736 532.473 582.888C532.473 581.768 531.913 580.984 530.793 580.536C530.249 580.312 529.633 580.144 528.945 580.032C527.521 579.776 526.449 579.352 525.729 578.76C525.009 578.152 524.649 577.24 524.649 576.024C524.649 574.808 525.169 573.856 526.209 573.168C527.249 572.464 528.585 572.112 530.217 572.112ZM534.777 585.552C534.665 583.904 534.609 581.68 534.609 578.88C534.609 576.064 534.649 574.24 534.729 573.408C534.809 572.896 535.161 572.56 535.785 572.4C536.409 572.224 537.233 572.136 538.257 572.136C539.761 572.136 541.025 572.464 542.049 573.12C543.089 573.76 543.609 574.712 543.609 575.976C543.609 577.016 543.465 577.888 543.177 578.592C542.889 579.28 542.529 579.792 542.097 580.128C541.393 580.672 540.353 580.944 538.977 580.944C538.385 580.944 537.609 580.864 536.649 580.704C536.729 583.904 536.761 585.92 536.745 586.752C536.729 587.584 536.449 588 535.905 588C535.553 588 535.329 587.936 535.233 587.808C535.137 587.68 535.073 587.592 535.041 587.544C535.009 587.48 534.977 587.392 534.945 587.28C534.913 587.168 534.889 587.08 534.873 587.016C534.857 586.936 534.841 586.824 534.825 586.68C534.825 586.536 534.817 586.424 534.801 586.344C534.785 586.104 534.777 585.84 534.777 585.552ZM541.617 576.048C541.617 575.392 541.265 574.88 540.561 574.512C539.857 574.128 539.105 573.936 538.305 573.936C537.505 573.936 536.945 574.008 536.625 574.152C536.561 575.096 536.529 575.968 536.529 576.768C536.529 577.552 536.561 578.264 536.625 578.904C537.057 578.952 537.353 578.992 537.513 579.024C537.929 579.072 538.281 579.096 538.569 579.096C538.873 579.096 539.073 579.096 539.169 579.096C539.281 579.08 539.481 579.056 539.769 579.024C540.073 578.976 540.289 578.904 540.417 578.808C540.545 578.712 540.705 578.584 540.897 578.424C541.089 578.264 541.225 578.08 541.305 577.872C541.513 577.296 541.617 576.688 541.617 576.048Z" fill="black" fill-opacity="0.56"/>
<defs>
<filter id="filter0_d" x="300.8" y="526.11" width="267.203" height="44.89" filterUnits="userSpaceOnUse" color-interpolation-filters="sRGB">
<feFlood flood-opacity="0" result="BackgroundImageFix"/>
<feColorMatrix in="SourceAlpha" type="matrix" values="0 0 0 0 0 0 0 0 0 0 0 0 0 0 0 0 0 0 127 0"/>
<feOffset dx="4" dy="5"/>
<feGaussianBlur stdDeviation="4"/>
<feColorMatrix type="matrix" values="0 0 0 0 0 0 0 0 0 0 0 0 0 0 0 0 0 0 0.33 0"/>
<feBlend mode="normal" in2="BackgroundImageFix" result="effect1_dropShadow"/>
<feBlend mode="normal" in="SourceGraphic" in2="effect1_dropShadow" result="shape"/>
</filter>
</defs>
</svg>
