<svg width="176" height="52" viewBox="0 0 176 52" fill="none" xmlns="http://www.w3.org/2000/svg">
<g filter="url(#filter0_d)">
<path d="M128 45H6V5H170V45H158" stroke="white" stroke-width="3"/>
</g>
<path d="M139.33 45.192H139.42L140.734 41.772L141.976 41.808L142.012 45.678L142.183 48H140.968L141.013 45.66L140.914 43.293L139.834 46.272L138.727 46.326L137.719 43.293L137.638 45.66L137.701 48H136.585L136.711 45.813L136.765 41.952L138.196 41.727L139.33 45.192ZM143.003 46.209C143.513 46.719 144.023 46.974 144.533 46.974C144.797 46.974 145.007 46.914 145.163 46.794C145.325 46.668 145.406 46.509 145.406 46.317C145.406 46.119 145.31 45.954 145.118 45.822C144.926 45.684 144.692 45.564 144.416 45.462C144.146 45.36 143.876 45.246 143.606 45.12C143.336 44.988 143.105 44.802 142.913 44.562C142.721 44.322 142.625 44.031 142.625 43.689C142.625 43.149 142.85 42.684 143.3 42.294C143.75 41.898 144.284 41.7 144.902 41.7C145.184 41.7 145.457 41.73 145.721 41.79C145.985 41.85 146.24 41.937 146.486 42.051L145.874 43.365C145.706 43.233 145.475 43.113 145.181 43.005C144.893 42.891 144.638 42.834 144.416 42.834C144.2 42.834 144.023 42.888 143.885 42.996C143.753 43.098 143.687 43.236 143.687 43.41C143.687 43.584 143.783 43.74 143.975 43.878C144.167 44.01 144.398 44.127 144.668 44.229C144.944 44.331 145.217 44.445 145.487 44.571C145.763 44.691 145.997 44.871 146.189 45.111C146.381 45.351 146.477 45.642 146.477 45.984C146.477 46.548 146.252 47.043 145.802 47.469C145.352 47.889 144.827 48.099 144.227 48.099C143.777 48.099 143.378 47.991 143.03 47.775C142.724 47.589 142.508 47.424 142.382 47.28L142.301 47.181L143.003 46.209ZM148.843 41.79C149.419 41.79 149.878 41.955 150.22 42.285C150.562 42.609 150.733 43.056 150.733 43.626C150.733 44.196 150.517 44.685 150.085 45.093C149.653 45.495 149.125 45.696 148.501 45.696H147.988L148.096 48H146.89L146.998 45.813L146.89 41.79H148.843ZM148.519 42.699H148.078L148.015 44.823H148.627C148.927 44.823 149.158 44.724 149.32 44.526C149.488 44.328 149.572 44.046 149.572 43.68C149.572 43.026 149.221 42.699 148.519 42.699Z" fill="white"/>
<g filter="url(#filter1_d)">
<path d="M17.585 35H14.82V13.09H18.285L22.03 26.67L25.775 13.09H29.24V35H26.475V18.97L23.465 30.24H20.595L17.585 19.005V35ZM31.1169 35V30.695H34.6519V35H31.1169ZM46.8518 31.43V26.075C46.8518 25.655 46.7818 25.3867 46.6418 25.27C46.5252 25.13 46.2568 25.06 45.8368 25.06H43.2468C41.1235 25.06 40.0618 24.0217 40.0618 21.945V16.17C40.0618 14.1167 41.1468 13.09 43.3168 13.09H46.7468C48.9168 13.09 50.0018 14.1167 50.0018 16.17V19.39H46.8168V16.66C46.8168 16.24 46.7468 15.9717 46.6068 15.855C46.4668 15.715 46.1868 15.645 45.7668 15.645H44.2968C43.8768 15.645 43.5968 15.715 43.4568 15.855C43.3168 15.9717 43.2468 16.24 43.2468 16.66V21.525C43.2468 21.945 43.3168 22.225 43.4568 22.365C43.5968 22.4817 43.8768 22.54 44.2968 22.54H46.8518C48.9985 22.54 50.0718 23.5667 50.0718 25.62V31.92C50.0718 33.9733 48.9752 35 46.7818 35H43.3868C41.2168 35 40.1318 33.9733 40.1318 31.92V28.7H43.3168V31.43C43.3168 31.85 43.3868 32.13 43.5268 32.27C43.6668 32.3867 43.9468 32.445 44.3668 32.445H45.8368C46.2568 32.445 46.5252 32.3867 46.6418 32.27C46.7818 32.13 46.8518 31.85 46.8518 31.43ZM60.1983 35L59.3233 29.925H54.7033L53.8983 35H50.7483L54.6333 13.09H59.2183L63.3833 35H60.1983ZM55.0883 27.37H58.9033L56.9083 15.82L55.0883 27.37ZM72.3701 13.09H75.2751V35H72.0901L67.4701 19.18V35H64.5651V13.09H67.8901L72.3701 28.455V13.09ZM81.8792 13.09H89.0542C91.2242 13.09 92.3092 14.1167 92.3092 16.17V23.45C92.3092 25.5033 91.2242 26.53 89.0542 26.53H85.0292V35H81.8792V13.09ZM89.1592 22.96V16.66C89.1592 16.24 89.0892 15.9717 88.9492 15.855C88.8092 15.715 88.5292 15.645 88.1092 15.645H85.0292V24.01H88.1092C88.5292 24.01 88.8092 23.94 88.9492 23.8C89.0892 23.66 89.1592 23.38 89.1592 22.96ZM102.107 35L101.232 29.925H96.6117L95.8067 35H92.6567L96.5417 13.09H101.127L105.292 35H102.107ZM96.9967 27.37H100.812L98.8167 15.82L96.9967 27.37ZM112.774 31.43V26.075C112.774 25.655 112.704 25.3867 112.564 25.27C112.447 25.13 112.179 25.06 111.759 25.06H109.169C107.045 25.06 105.984 24.0217 105.984 21.945V16.17C105.984 14.1167 107.069 13.09 109.239 13.09H112.669C114.839 13.09 115.924 14.1167 115.924 16.17V19.39H112.739V16.66C112.739 16.24 112.669 15.9717 112.529 15.855C112.389 15.715 112.109 15.645 111.689 15.645H110.219C109.799 15.645 109.519 15.715 109.379 15.855C109.239 15.9717 109.169 16.24 109.169 16.66V21.525C109.169 21.945 109.239 22.225 109.379 22.365C109.519 22.4817 109.799 22.54 110.219 22.54H112.774C114.92 22.54 115.994 23.5667 115.994 25.62V31.92C115.994 33.9733 114.897 35 112.704 35H109.309C107.139 35 106.054 33.9733 106.054 31.92V28.7H109.239V31.43C109.239 31.85 109.309 32.13 109.449 32.27C109.589 32.3867 109.869 32.445 110.289 32.445H111.759C112.179 32.445 112.447 32.3867 112.564 32.27C112.704 32.13 112.774 31.85 112.774 31.43ZM128.15 19.95H124.93V16.59C124.93 16.17 124.86 15.9017 124.72 15.785C124.603 15.645 124.335 15.575 123.915 15.575H122.13C121.71 15.575 121.43 15.645 121.29 15.785C121.15 15.9017 121.08 16.17 121.08 16.59V31.535C121.08 31.955 121.15 32.235 121.29 32.375C121.43 32.4917 121.71 32.55 122.13 32.55H123.915C124.335 32.55 124.603 32.4917 124.72 32.375C124.86 32.235 124.93 31.955 124.93 31.535V28.21H128.15V31.92C128.15 33.9967 127.053 35.035 124.86 35.035H121.15C118.98 35.035 117.895 33.9967 117.895 31.92V16.17C117.895 14.1167 118.98 13.09 121.15 13.09H124.86C127.053 13.09 128.15 14.1167 128.15 16.17V19.95ZM137.388 13.09H140.573V31.92C140.573 33.9733 139.477 35 137.283 35H133.398C131.205 35 130.108 33.9733 130.108 31.92V13.09H133.293V31.43C133.293 31.85 133.363 32.13 133.503 32.27C133.643 32.3867 133.923 32.445 134.343 32.445H136.338C136.782 32.445 137.062 32.3867 137.178 32.27C137.318 32.13 137.388 31.85 137.388 31.43V13.09ZM151.124 35L150.249 29.925H145.629L144.824 35H141.674L145.559 13.09H150.144L154.309 35H151.124ZM146.014 27.37H149.829L147.834 15.82L146.014 27.37ZM158.641 32.445H164.066V35H155.491V13.09H158.641V32.445Z" fill="white"/>
<path d="M17.585 35V35.5H18.085V35H17.585ZM14.82 35H14.32V35.5H14.82V35ZM14.82 13.09V12.59H14.32V13.09H14.82ZM18.285 13.09L18.767 12.9571L18.6658 12.59H18.285V13.09ZM22.03 26.67L21.548 26.8029L22.03 28.5508L22.512 26.8029L22.03 26.67ZM25.775 13.09V12.59H25.3942L25.293 12.9571L25.775 13.09ZM29.24 13.09H29.74V12.59H29.24V13.09ZM29.24 35V35.5H29.74V35H29.24ZM26.475 35H25.975V35.5H26.475V35ZM26.475 18.97H26.975L25.9919 18.841L26.475 18.97ZM23.465 30.24V30.74H23.849L23.9481 30.369L23.465 30.24ZM20.595 30.24L20.112 30.3694L20.2113 30.74H20.595V30.24ZM17.585 19.005L18.068 18.8756L17.085 19.005H17.585ZM17.585 34.5H14.82V35.5H17.585V34.5ZM15.32 35V13.09H14.32V35H15.32ZM14.82 13.59H18.285V12.59H14.82V13.59ZM17.803 13.2229L21.548 26.8029L22.512 26.5371L18.767 12.9571L17.803 13.2229ZM22.512 26.8029L26.257 13.2229L25.293 12.9571L21.548 26.5371L22.512 26.8029ZM25.775 13.59H29.24V12.59H25.775V13.59ZM28.74 13.09V35H29.74V13.09H28.74ZM29.24 34.5H26.475V35.5H29.24V34.5ZM26.975 35V18.97H25.975V35H26.975ZM25.9919 18.841L22.9819 30.111L23.9481 30.369L26.9581 19.099L25.9919 18.841ZM23.465 29.74H20.595V30.74H23.465V29.74ZM21.078 30.1106L18.068 18.8756L17.102 19.1344L20.112 30.3694L21.078 30.1106ZM17.085 19.005V35H18.085V19.005H17.085ZM31.1169 35H30.6169V35.5H31.1169V35ZM31.1169 30.695V30.195H30.6169V30.695H31.1169ZM34.6519 30.695H35.1519V30.195H34.6519V30.695ZM34.6519 35V35.5H35.1519V35H34.6519ZM31.6169 35V30.695H30.6169V35H31.6169ZM31.1169 31.195H34.6519V30.195H31.1169V31.195ZM34.1519 30.695V35H35.1519V30.695H34.1519ZM34.6519 34.5H31.1169V35.5H34.6519V34.5ZM46.6418 25.27L46.2577 25.5901L46.2868 25.625L46.3217 25.6541L46.6418 25.27ZM50.0018 19.39V19.89H50.5018V19.39H50.0018ZM46.8168 19.39H46.3168V19.89H46.8168V19.39ZM46.6068 15.855L46.2533 16.2086L46.2693 16.2246L46.2867 16.2391L46.6068 15.855ZM43.4568 15.855L43.7769 16.2391L43.7944 16.2246L43.8104 16.2086L43.4568 15.855ZM43.4568 22.365L43.1033 22.7186L43.1193 22.7346L43.1367 22.7491L43.4568 22.365ZM40.1318 28.7V28.2H39.6318V28.7H40.1318ZM43.3168 28.7H43.8168V28.2H43.3168V28.7ZM43.5268 32.27L43.1733 32.6236L43.1893 32.6396L43.2067 32.6541L43.5268 32.27ZM46.6418 32.27L46.9954 32.6236L46.9954 32.6236L46.6418 32.27ZM47.3518 31.43V26.075H46.3518V31.43H47.3518ZM47.3518 26.075C47.3518 25.8419 47.3329 25.6232 47.2831 25.4325C47.2347 25.2469 47.144 25.0376 46.9619 24.8859L46.3217 25.6541C46.2797 25.619 46.2939 25.6022 46.3155 25.685C46.3358 25.7626 46.3518 25.8881 46.3518 26.075H47.3518ZM47.0259 24.9499C46.8742 24.7678 46.6649 24.6771 46.4793 24.6287C46.2886 24.5789 46.07 24.56 45.8368 24.56V25.56C46.0237 25.56 46.1492 25.5761 46.2269 25.5963C46.3096 25.6179 46.2928 25.6322 46.2577 25.5901L47.0259 24.9499ZM45.8368 24.56H43.2468V25.56H45.8368V24.56ZM43.2468 24.56C42.2595 24.56 41.6113 24.3186 41.2077 23.9238C40.8061 23.531 40.5618 22.9034 40.5618 21.945H39.5618C39.5618 23.0633 39.8484 23.9931 40.5085 24.6387C41.1665 25.2823 42.1109 25.56 43.2468 25.56V24.56ZM40.5618 21.945V16.17H39.5618V21.945H40.5618ZM40.5618 16.17C40.5618 15.2277 40.8095 14.6109 41.2192 14.2232C41.6342 13.8305 42.3022 13.59 43.3168 13.59V12.59C42.1614 12.59 41.202 12.8628 40.5319 13.4968C39.8567 14.1357 39.5618 15.059 39.5618 16.17H40.5618ZM43.3168 13.59H46.7468V12.59H43.3168V13.59ZM46.7468 13.59C47.7614 13.59 48.4295 13.8305 48.8444 14.2232C49.2542 14.6109 49.5018 15.2277 49.5018 16.17H50.5018C50.5018 15.059 50.207 14.1357 49.5317 13.4968C48.8617 12.8628 47.9022 12.59 46.7468 12.59V13.59ZM49.5018 16.17V19.39H50.5018V16.17H49.5018ZM50.0018 18.89H46.8168V19.89H50.0018V18.89ZM47.3168 19.39V16.66H46.3168V19.39H47.3168ZM47.3168 16.66C47.3168 16.4269 47.2979 16.2082 47.2481 16.0175C47.1997 15.8319 47.109 15.6226 46.9269 15.4709L46.2867 16.2391C46.2447 16.204 46.2589 16.1872 46.2805 16.27C46.3008 16.3476 46.3168 16.4731 46.3168 16.66H47.3168ZM46.9604 15.5014C46.8035 15.3445 46.6032 15.26 46.4131 15.2124C46.22 15.1641 46.001 15.145 45.7668 15.145V16.145C45.9527 16.145 46.0837 16.1609 46.1706 16.1826C46.2604 16.205 46.2702 16.2255 46.2533 16.2086L46.9604 15.5014ZM45.7668 15.145H44.2968V16.145H45.7668V15.145ZM44.2968 15.145C44.0627 15.145 43.8437 15.1641 43.6506 15.2124C43.4604 15.26 43.2602 15.3445 43.1033 15.5014L43.8104 16.2086C43.7935 16.2255 43.8032 16.205 43.8931 16.1826C43.98 16.1609 44.111 16.145 44.2968 16.145V15.145ZM43.1367 15.4709C42.9547 15.6226 42.8639 15.8319 42.8155 16.0175C42.7658 16.2082 42.7468 16.4269 42.7468 16.66H43.7468C43.7468 16.4731 43.7629 16.3476 43.7831 16.27C43.8047 16.1872 43.819 16.204 43.7769 16.2391L43.1367 15.4709ZM42.7468 16.66V21.525H43.7468V16.66H42.7468ZM42.7468 21.525C42.7468 21.7591 42.766 21.9781 42.8143 22.1713C42.8618 22.3614 42.9463 22.5616 43.1033 22.7186L43.8104 22.0114C43.8273 22.0284 43.8069 22.0186 43.7844 21.9287C43.7627 21.8419 43.7468 21.7109 43.7468 21.525H42.7468ZM43.1367 22.7491C43.2956 22.8815 43.4909 22.9485 43.6699 22.9857C43.855 23.0243 44.0669 23.04 44.2968 23.04V22.04C44.1067 22.04 43.9687 22.0265 43.8738 22.0068C43.7728 21.9857 43.758 21.9651 43.7769 21.9809L43.1367 22.7491ZM44.2968 23.04H46.8518V22.04H44.2968V23.04ZM46.8518 23.04C47.8535 23.04 48.512 23.2799 48.9212 23.6713C49.3263 24.0588 49.5718 24.6762 49.5718 25.62H50.5718C50.5718 24.5105 50.2807 23.5879 49.6124 22.9487C48.9483 22.3134 47.9968 22.04 46.8518 22.04V23.04ZM49.5718 25.62V31.92H50.5718V25.62H49.5718ZM49.5718 31.92C49.5718 32.8608 49.3222 33.4769 48.9076 33.865C48.4869 34.2589 47.8093 34.5 46.7818 34.5V35.5C47.9477 35.5 48.9151 35.2278 49.591 34.595C50.2732 33.9564 50.5718 33.0325 50.5718 31.92H49.5718ZM46.7818 34.5H43.3868V35.5H46.7818V34.5ZM43.3868 34.5C42.3722 34.5 41.7042 34.2595 41.2892 33.8668C40.8795 33.4791 40.6318 32.8623 40.6318 31.92H39.6318C39.6318 33.031 39.9267 33.9543 40.6019 34.5932C41.272 35.2272 42.2314 35.5 43.3868 35.5V34.5ZM40.6318 31.92V28.7H39.6318V31.92H40.6318ZM40.1318 29.2H43.3168V28.2H40.1318V29.2ZM42.8168 28.7V31.43H43.8168V28.7H42.8168ZM42.8168 31.43C42.8168 31.6641 42.836 31.8831 42.8843 32.0763C42.9318 32.2664 43.0163 32.4666 43.1733 32.6236L43.8804 31.9164C43.8973 31.9334 43.8769 31.9236 43.8544 31.8337C43.8327 31.7469 43.8168 31.6159 43.8168 31.43H42.8168ZM43.2067 32.6541C43.3656 32.7865 43.5609 32.8535 43.7399 32.8907C43.925 32.9293 44.1369 32.945 44.3668 32.945V31.945C44.1767 31.945 44.0387 31.9315 43.9438 31.9118C43.8428 31.8907 43.828 31.8701 43.8469 31.8859L43.2067 32.6541ZM44.3668 32.945H45.8368V31.945H44.3668V32.945ZM45.8368 32.945C46.0659 32.945 46.277 32.9295 46.4593 32.8898C46.6314 32.8524 46.8378 32.7811 46.9954 32.6236L46.2883 31.9164C46.3292 31.8756 46.3431 31.8917 46.2469 31.9127C46.1608 31.9314 46.0278 31.945 45.8368 31.945V32.945ZM46.9954 32.6236C47.1523 32.4666 47.2369 32.2664 47.2844 32.0763C47.3327 31.8831 47.3518 31.6641 47.3518 31.43H46.3518C46.3518 31.6159 46.336 31.7469 46.3143 31.8337C46.2918 31.9236 46.2713 31.9334 46.2883 31.9164L46.9954 32.6236ZM60.1983 35L59.7056 35.085L59.7771 35.5H60.1983V35ZM59.3233 29.925L59.816 29.84L59.7445 29.425H59.3233V29.925ZM54.7033 29.925V29.425H54.2764L54.2095 29.8467L54.7033 29.925ZM53.8983 35V35.5H54.3253L54.3921 35.0783L53.8983 35ZM50.7483 35L50.256 34.9127L50.1519 35.5H50.7483V35ZM54.6333 13.09V12.59H54.2142L54.141 13.0027L54.6333 13.09ZM59.2183 13.09L59.7095 12.9966L59.6322 12.59H59.2183V13.09ZM63.3833 35V35.5H63.9873L63.8745 34.9066L63.3833 35ZM55.0883 27.37L54.5944 27.2922L54.5034 27.87H55.0883V27.37ZM58.9033 27.37V27.87H59.4971L59.396 27.2849L58.9033 27.37ZM56.9083 15.82L57.401 15.7349L56.4144 15.7422L56.9083 15.82ZM60.691 34.915L59.816 29.84L58.8306 30.01L59.7056 35.085L60.691 34.915ZM59.3233 29.425H54.7033V30.425H59.3233V29.425ZM54.2095 29.8467L53.4045 34.9217L54.3921 35.0783L55.1971 30.0033L54.2095 29.8467ZM53.8983 34.5H50.7483V35.5H53.8983V34.5ZM51.2406 35.0873L55.1256 13.1773L54.141 13.0027L50.256 34.9127L51.2406 35.0873ZM54.6333 13.59H59.2183V12.59H54.6333V13.59ZM58.7271 13.1834L62.8921 35.0934L63.8745 34.9066L59.7095 12.9966L58.7271 13.1834ZM63.3833 34.5H60.1983V35.5H63.3833V34.5ZM55.0883 27.87H58.9033V26.87H55.0883V27.87ZM59.396 27.2849L57.401 15.7349L56.4156 15.9051L58.4106 27.4551L59.396 27.2849ZM56.4144 15.7422L54.5944 27.2922L55.5822 27.4478L57.4022 15.8978L56.4144 15.7422ZM72.3701 13.09V12.59H71.8701V13.09H72.3701ZM75.2751 13.09H75.7751V12.59H75.2751V13.09ZM75.2751 35V35.5H75.7751V35H75.2751ZM72.0901 35L71.6102 35.1402L71.7153 35.5H72.0901V35ZM67.4701 19.18L67.9501 19.0398L66.9701 19.18H67.4701ZM67.4701 35V35.5H67.9701V35H67.4701ZM64.5651 35H64.0651V35.5H64.5651V35ZM64.5651 13.09V12.59H64.0651V13.09H64.5651ZM67.8901 13.09L68.3701 12.95L68.2652 12.59H67.8901V13.09ZM72.3701 28.455L71.8901 28.595L72.8701 28.455H72.3701ZM72.3701 13.59H75.2751V12.59H72.3701V13.59ZM74.7751 13.09V35H75.7751V13.09H74.7751ZM75.2751 34.5H72.0901V35.5H75.2751V34.5ZM72.5701 34.8598L67.9501 19.0398L66.9902 19.3202L71.6102 35.1402L72.5701 34.8598ZM66.9701 19.18V35H67.9701V19.18H66.9701ZM67.4701 34.5H64.5651V35.5H67.4701V34.5ZM65.0651 35V13.09H64.0651V35H65.0651ZM64.5651 13.59H67.8901V12.59H64.5651V13.59ZM67.4101 13.23L71.8901 28.595L72.8501 28.315L68.3701 12.95L67.4101 13.23ZM72.8701 28.455V13.09H71.8701V28.455H72.8701ZM81.8792 13.09V12.59H81.3792V13.09H81.8792ZM85.0292 26.53V26.03H84.5292V26.53H85.0292ZM85.0292 35V35.5H85.5292V35H85.0292ZM81.8792 35H81.3792V35.5H81.8792V35ZM88.9492 15.855L88.5956 16.2086L88.6117 16.2246L88.6291 16.2391L88.9492 15.855ZM85.0292 15.645V15.145H84.5292V15.645H85.0292ZM85.0292 24.01H84.5292V24.51H85.0292V24.01ZM88.9492 23.8L88.5956 23.4464L88.5956 23.4464L88.9492 23.8ZM81.8792 13.59H89.0542V12.59H81.8792V13.59ZM89.0542 13.59C90.0688 13.59 90.7368 13.8305 91.1518 14.2232C91.5616 14.6109 91.8092 15.2277 91.8092 16.17H92.8092C92.8092 15.059 92.5143 14.1357 91.8391 13.4968C91.1691 12.8628 90.2096 12.59 89.0542 12.59V13.59ZM91.8092 16.17V23.45H92.8092V16.17H91.8092ZM91.8092 23.45C91.8092 24.3923 91.5616 25.0091 91.1518 25.3968C90.7368 25.7895 90.0688 26.03 89.0542 26.03V27.03C90.2096 27.03 91.1691 26.7572 91.8391 26.1232C92.5143 25.4843 92.8092 24.561 92.8092 23.45H91.8092ZM89.0542 26.03H85.0292V27.03H89.0542V26.03ZM84.5292 26.53V35H85.5292V26.53H84.5292ZM85.0292 34.5H81.8792V35.5H85.0292V34.5ZM82.3792 35V13.09H81.3792V35H82.3792ZM89.6592 22.96V16.66H88.6592V22.96H89.6592ZM89.6592 16.66C89.6592 16.4269 89.6402 16.2082 89.5905 16.0175C89.5421 15.8319 89.4514 15.6226 89.2693 15.4709L88.6291 16.2391C88.587 16.204 88.6013 16.1872 88.6229 16.27C88.6431 16.3476 88.6592 16.4731 88.6592 16.66H89.6592ZM89.3027 15.5014C89.1458 15.3445 88.9456 15.26 88.7554 15.2124C88.5623 15.1641 88.3433 15.145 88.1092 15.145V16.145C88.295 16.145 88.4261 16.1609 88.5129 16.1826C88.6028 16.205 88.6126 16.2255 88.5956 16.2086L89.3027 15.5014ZM88.1092 15.145H85.0292V16.145H88.1092V15.145ZM84.5292 15.645V24.01H85.5292V15.645H84.5292ZM85.0292 24.51H88.1092V23.51H85.0292V24.51ZM88.1092 24.51C88.3433 24.51 88.5623 24.4909 88.7554 24.4426C88.9456 24.395 89.1458 24.3105 89.3027 24.1536L88.5956 23.4464C88.6126 23.4295 88.6028 23.45 88.5129 23.4724C88.4261 23.4941 88.295 23.51 88.1092 23.51V24.51ZM89.3027 24.1536C89.4597 23.9966 89.5442 23.7964 89.5918 23.6063C89.64 23.4131 89.6592 23.1941 89.6592 22.96H88.6592C88.6592 23.1459 88.6433 23.2769 88.6216 23.3637C88.5991 23.4536 88.5787 23.4634 88.5956 23.4464L89.3027 24.1536ZM102.107 35L101.614 35.085L101.686 35.5H102.107V35ZM101.232 29.925L101.724 29.84L101.653 29.425H101.232V29.925ZM96.6117 29.925V29.425H96.1848L96.1179 29.8467L96.6117 29.925ZM95.8067 35V35.5H96.2337L96.3005 35.0783L95.8067 35ZM92.6567 35L92.1644 34.9127L92.0603 35.5H92.6567V35ZM96.5417 13.09V12.59H96.1226L96.0494 13.0027L96.5417 13.09ZM101.127 13.09L101.618 12.9966L101.541 12.59H101.127V13.09ZM105.292 35V35.5H105.896L105.783 34.9066L105.292 35ZM96.9967 27.37L96.5028 27.2922L96.4118 27.87H96.9967V27.37ZM100.812 27.37V27.87H101.405L101.304 27.2849L100.812 27.37ZM98.8167 15.82L99.3094 15.7349L98.3228 15.7422L98.8167 15.82ZM102.599 34.915L101.724 29.84L100.739 30.01L101.614 35.085L102.599 34.915ZM101.232 29.425H96.6117V30.425H101.232V29.425ZM96.1179 29.8467L95.3129 34.9217L96.3005 35.0783L97.1055 30.0033L96.1179 29.8467ZM95.8067 34.5H92.6567V35.5H95.8067V34.5ZM93.149 35.0873L97.034 13.1773L96.0494 13.0027L92.1644 34.9127L93.149 35.0873ZM96.5417 13.59H101.127V12.59H96.5417V13.59ZM100.636 13.1834L104.801 35.0934L105.783 34.9066L101.618 12.9966L100.636 13.1834ZM105.292 34.5H102.107V35.5H105.292V34.5ZM96.9967 27.87H100.812V26.87H96.9967V27.87ZM101.304 27.2849L99.3094 15.7349L98.324 15.9051L100.319 27.4551L101.304 27.2849ZM98.3228 15.7422L96.5028 27.2922L97.4906 27.4478L99.3106 15.8978L98.3228 15.7422ZM112.564 25.27L112.179 25.5901L112.209 25.625L112.243 25.6541L112.564 25.27ZM115.924 19.39V19.89H116.424V19.39H115.924ZM112.739 19.39H112.239V19.89H112.739V19.39ZM112.529 15.855L112.175 16.2086L112.191 16.2246L112.208 16.2391L112.529 15.855ZM109.379 15.855L109.699 16.2391L109.716 16.2246L109.732 16.2086L109.379 15.855ZM109.379 22.365L109.025 22.7186L109.041 22.7346L109.058 22.7491L109.379 22.365ZM106.054 28.7V28.2H105.554V28.7H106.054ZM109.239 28.7H109.739V28.2H109.239V28.7ZM109.449 32.27L109.095 32.6236L109.111 32.6396L109.128 32.6541L109.449 32.27ZM112.564 32.27L112.917 32.6236L112.917 32.6236L112.564 32.27ZM113.274 31.43V26.075H112.274V31.43H113.274ZM113.274 26.075C113.274 25.8419 113.255 25.6232 113.205 25.4325C113.156 25.2469 113.066 25.0376 112.884 24.8859L112.243 25.6541C112.201 25.619 112.216 25.6022 112.237 25.685C112.257 25.7626 112.274 25.8881 112.274 26.075H113.274ZM112.948 24.9499C112.796 24.7678 112.587 24.6771 112.401 24.6287C112.21 24.5789 111.992 24.56 111.759 24.56V25.56C111.945 25.56 112.071 25.5761 112.149 25.5963C112.231 25.6179 112.214 25.6322 112.179 25.5901L112.948 24.9499ZM111.759 24.56H109.169V25.56H111.759V24.56ZM109.169 24.56C108.181 24.56 107.533 24.3186 107.129 23.9238C106.728 23.531 106.484 22.9034 106.484 21.945H105.484C105.484 23.0633 105.77 23.9931 106.43 24.6387C107.088 25.2823 108.033 25.56 109.169 25.56V24.56ZM106.484 21.945V16.17H105.484V21.945H106.484ZM106.484 16.17C106.484 15.2277 106.731 14.6109 107.141 14.2232C107.556 13.8305 108.224 13.59 109.239 13.59V12.59C108.083 12.59 107.124 12.8628 106.454 13.4968C105.778 14.1357 105.484 15.059 105.484 16.17H106.484ZM109.239 13.59H112.669V12.59H109.239V13.59ZM112.669 13.59C113.683 13.59 114.351 13.8305 114.766 14.2232C115.176 14.6109 115.424 15.2277 115.424 16.17H116.424C116.424 15.059 116.129 14.1357 115.453 13.4968C114.783 12.8628 113.824 12.59 112.669 12.59V13.59ZM115.424 16.17V19.39H116.424V16.17H115.424ZM115.924 18.89H112.739V19.89H115.924V18.89ZM113.239 19.39V16.66H112.239V19.39H113.239ZM113.239 16.66C113.239 16.4269 113.22 16.2082 113.17 16.0175C113.121 15.8319 113.031 15.6226 112.849 15.4709L112.208 16.2391C112.166 16.204 112.181 16.1872 112.202 16.27C112.222 16.3476 112.239 16.4731 112.239 16.66H113.239ZM112.882 15.5014C112.725 15.3445 112.525 15.26 112.335 15.2124C112.142 15.1641 111.923 15.145 111.689 15.145V16.145C111.874 16.145 112.005 16.1609 112.092 16.1826C112.182 16.205 112.192 16.2255 112.175 16.2086L112.882 15.5014ZM111.689 15.145H110.219V16.145H111.689V15.145ZM110.219 15.145C109.984 15.145 109.765 15.1641 109.572 15.2124C109.382 15.26 109.182 15.3445 109.025 15.5014L109.732 16.2086C109.715 16.2255 109.725 16.205 109.815 16.1826C109.902 16.1609 110.033 16.145 110.219 16.145V15.145ZM109.058 15.4709C108.876 15.6226 108.786 15.8319 108.737 16.0175C108.687 16.2082 108.669 16.4269 108.669 16.66H109.669C109.669 16.4731 109.685 16.3476 109.705 16.27C109.726 16.1872 109.741 16.204 109.699 16.2391L109.058 15.4709ZM108.669 16.66V21.525H109.669V16.66H108.669ZM108.669 21.525C108.669 21.7591 108.688 21.9781 108.736 22.1713C108.783 22.3614 108.868 22.5616 109.025 22.7186L109.732 22.0114C109.749 22.0284 109.729 22.0186 109.706 21.9287C109.684 21.8419 109.669 21.7109 109.669 21.525H108.669ZM109.058 22.7491C109.217 22.8815 109.413 22.9485 109.592 22.9857C109.777 23.0243 109.989 23.04 110.219 23.04V22.04C110.028 22.04 109.89 22.0265 109.795 22.0068C109.694 21.9857 109.68 21.9651 109.699 21.9809L109.058 22.7491ZM110.219 23.04H112.774V22.04H110.219V23.04ZM112.774 23.04C113.775 23.04 114.434 23.2799 114.843 23.6713C115.248 24.0588 115.494 24.6762 115.494 25.62H116.494C116.494 24.5105 116.202 23.5879 115.534 22.9487C114.87 22.3134 113.919 22.04 112.774 22.04V23.04ZM115.494 25.62V31.92H116.494V25.62H115.494ZM115.494 31.92C115.494 32.8608 115.244 33.4769 114.829 33.865C114.409 34.2589 113.731 34.5 112.704 34.5V35.5C113.869 35.5 114.837 35.2278 115.513 34.595C116.195 33.9564 116.494 33.0325 116.494 31.92H115.494ZM112.704 34.5H109.309V35.5H112.704V34.5ZM109.309 34.5C108.294 34.5 107.626 34.2595 107.211 33.8668C106.801 33.4791 106.554 32.8623 106.554 31.92H105.554C105.554 33.031 105.848 33.9543 106.524 34.5932C107.194 35.2272 108.153 35.5 109.309 35.5V34.5ZM106.554 31.92V28.7H105.554V31.92H106.554ZM106.054 29.2H109.239V28.2H106.054V29.2ZM108.739 28.7V31.43H109.739V28.7H108.739ZM108.739 31.43C108.739 31.6641 108.758 31.8831 108.806 32.0763C108.853 32.2664 108.938 32.4666 109.095 32.6236L109.802 31.9164C109.819 31.9334 109.799 31.9236 109.776 31.8337C109.754 31.7469 109.739 31.6159 109.739 31.43H108.739ZM109.128 32.6541C109.287 32.7865 109.483 32.8535 109.662 32.8907C109.847 32.9293 110.059 32.945 110.289 32.945V31.945C110.098 31.945 109.96 31.9315 109.865 31.9118C109.764 31.8907 109.75 31.8701 109.769 31.8859L109.128 32.6541ZM110.289 32.945H111.759V31.945H110.289V32.945ZM111.759 32.945C111.988 32.945 112.199 32.9295 112.381 32.8898C112.553 32.8524 112.76 32.7811 112.917 32.6236L112.21 31.9164C112.251 31.8756 112.265 31.8917 112.169 31.9127C112.082 31.9314 111.949 31.945 111.759 31.945V32.945ZM112.917 32.6236C113.074 32.4666 113.159 32.2664 113.206 32.0763C113.254 31.8831 113.274 31.6641 113.274 31.43H112.274C112.274 31.6159 112.258 31.7469 112.236 31.8337C112.213 31.9236 112.193 31.9334 112.21 31.9164L112.917 32.6236ZM128.15 19.95V20.45H128.65V19.95H128.15ZM124.93 19.95H124.43V20.45H124.93V19.95ZM124.72 15.785L124.336 16.1051L124.365 16.14L124.4 16.1691L124.72 15.785ZM121.29 15.785L121.61 16.1691L121.628 16.1546L121.644 16.1386L121.29 15.785ZM121.29 32.375L120.936 32.7286L120.952 32.7446L120.97 32.7591L121.29 32.375ZM124.72 32.375L124.366 32.0214L124.366 32.0214L124.72 32.375ZM124.93 28.21V27.71H124.43V28.21H124.93ZM128.15 28.21H128.65V27.71H128.15V28.21ZM128.15 19.45H124.93V20.45H128.15V19.45ZM125.43 19.95V16.59H124.43V19.95H125.43ZM125.43 16.59C125.43 16.3569 125.411 16.1382 125.361 15.9475C125.313 15.7619 125.222 15.5526 125.04 15.4009L124.4 16.1691C124.358 16.134 124.372 16.1172 124.394 16.2C124.414 16.2776 124.43 16.4031 124.43 16.59H125.43ZM125.104 15.4649C124.952 15.2828 124.743 15.1921 124.557 15.1437C124.367 15.0939 124.148 15.075 123.915 15.075V16.075C124.102 16.075 124.227 16.0911 124.305 16.1113C124.388 16.1329 124.371 16.1472 124.336 16.1051L125.104 15.4649ZM123.915 15.075H122.13V16.075H123.915V15.075ZM122.13 15.075C121.896 15.075 121.677 15.0941 121.484 15.1424C121.294 15.19 121.093 15.2745 120.936 15.4314L121.644 16.1386C121.627 16.1555 121.636 16.135 121.726 16.1126C121.813 16.0909 121.944 16.075 122.13 16.075V15.075ZM120.97 15.4009C120.788 15.5526 120.697 15.7619 120.649 15.9475C120.599 16.1382 120.58 16.3569 120.58 16.59H121.58C121.58 16.4031 121.596 16.2776 121.616 16.2C121.638 16.1172 121.652 16.134 121.61 16.1691L120.97 15.4009ZM120.58 16.59V31.535H121.58V16.59H120.58ZM120.58 31.535C120.58 31.7691 120.599 31.9881 120.647 32.1813C120.695 32.3714 120.78 32.5716 120.936 32.7286L121.644 32.0214C121.66 32.0384 121.64 32.0286 121.618 31.9387C121.596 31.8519 121.58 31.7209 121.58 31.535H120.58ZM120.97 32.7591C121.129 32.8915 121.324 32.9585 121.503 32.9957C121.688 33.0343 121.9 33.05 122.13 33.05V32.05C121.94 32.05 121.802 32.0365 121.707 32.0168C121.606 31.9957 121.591 31.9751 121.61 31.9909L120.97 32.7591ZM122.13 33.05H123.915V32.05H122.13V33.05ZM123.915 33.05C124.144 33.05 124.355 33.0345 124.537 32.9948C124.71 32.9574 124.916 32.8861 125.074 32.7286L124.366 32.0214C124.407 31.9806 124.421 31.9967 124.325 32.0177C124.239 32.0364 124.106 32.05 123.915 32.05V33.05ZM125.074 32.7286C125.23 32.5716 125.315 32.3714 125.363 32.1813C125.411 31.9881 125.43 31.7691 125.43 31.535H124.43C124.43 31.7209 124.414 31.8519 124.392 31.9387C124.37 32.0286 124.35 32.0384 124.366 32.0214L125.074 32.7286ZM125.43 31.535V28.21H124.43V31.535H125.43ZM124.93 28.71H128.15V27.71H124.93V28.71ZM127.65 28.21V31.92H128.65V28.21H127.65ZM127.65 31.92C127.65 32.8741 127.399 33.4996 126.984 33.8932C126.563 34.2916 125.886 34.535 124.86 34.535V35.535C126.027 35.535 126.995 35.2592 127.671 34.6193C128.352 33.9746 128.65 33.0426 128.65 31.92H127.65ZM124.86 34.535H121.15V35.535H124.86V34.535ZM121.15 34.535C120.137 34.535 119.47 34.2922 119.054 33.895C118.643 33.5017 118.395 32.8755 118.395 31.92H117.395C117.395 33.0411 117.689 33.9724 118.363 34.6175C119.033 35.2586 119.993 35.535 121.15 35.535V34.535ZM118.395 31.92V16.17H117.395V31.92H118.395ZM118.395 16.17C118.395 15.2277 118.643 14.6109 119.052 14.2232C119.467 13.8305 120.135 13.59 121.15 13.59V12.59C119.995 12.59 119.035 12.8628 118.365 13.4968C117.69 14.1357 117.395 15.059 117.395 16.17H118.395ZM121.15 13.59H124.86V12.59H121.15V13.59ZM124.86 13.59C125.887 13.59 126.565 13.8311 126.986 14.225C127.4 14.6131 127.65 15.2292 127.65 16.17H128.65C128.65 15.0575 128.351 14.1336 127.669 13.495C126.993 12.8622 126.026 12.59 124.86 12.59V13.59ZM127.65 16.17V19.95H128.65V16.17H127.65ZM137.388 13.09V12.59H136.888V13.09H137.388ZM140.573 13.09H141.073V12.59H140.573V13.09ZM130.108 13.09V12.59H129.608V13.09H130.108ZM133.293 13.09H133.793V12.59H133.293V13.09ZM133.503 32.27L133.15 32.6236L133.166 32.6396L133.183 32.6541L133.503 32.27ZM137.178 32.27L137.532 32.6236L137.532 32.6236L137.178 32.27ZM137.388 13.59H140.573V12.59H137.388V13.59ZM140.073 13.09V31.92H141.073V13.09H140.073ZM140.073 31.92C140.073 32.8608 139.824 33.4769 139.409 33.865C138.988 34.2589 138.311 34.5 137.283 34.5V35.5C138.449 35.5 139.417 35.2278 140.093 34.595C140.775 33.9564 141.073 33.0325 141.073 31.92H140.073ZM137.283 34.5H133.398V35.5H137.283V34.5ZM133.398 34.5C132.371 34.5 131.693 34.2589 131.273 33.865C130.858 33.4769 130.608 32.8608 130.608 31.92H129.608C129.608 33.0325 129.907 33.9564 130.589 34.595C131.265 35.2278 132.233 35.5 133.398 35.5V34.5ZM130.608 31.92V13.09H129.608V31.92H130.608ZM130.108 13.59H133.293V12.59H130.108V13.59ZM132.793 13.09V31.43H133.793V13.09H132.793ZM132.793 31.43C132.793 31.6641 132.812 31.8831 132.861 32.0763C132.908 32.2664 132.993 32.4666 133.15 32.6236L133.857 31.9164C133.874 31.9334 133.853 31.9236 133.831 31.8337C133.809 31.7469 133.793 31.6159 133.793 31.43H132.793ZM133.183 32.6541C133.342 32.7865 133.537 32.8535 133.716 32.8907C133.902 32.9293 134.113 32.945 134.343 32.945V31.945C134.153 31.945 134.015 31.9315 133.92 31.9118C133.819 31.8907 133.805 31.8701 133.823 31.8859L133.183 32.6541ZM134.343 32.945H136.338V31.945H134.343V32.945ZM136.338 32.945C136.578 32.945 136.796 32.9296 136.983 32.8907C137.156 32.8546 137.371 32.7847 137.532 32.6236L136.825 31.9164C136.869 31.8719 136.885 31.8896 136.779 31.9118C136.685 31.9312 136.542 31.945 136.338 31.945V32.945ZM137.532 32.6236C137.689 32.4666 137.773 32.2664 137.821 32.0763C137.869 31.8831 137.888 31.6641 137.888 31.43H136.888C136.888 31.6159 136.872 31.7469 136.851 31.8337C136.828 31.9236 136.808 31.9334 136.825 31.9164L137.532 32.6236ZM137.888 31.43V13.09H136.888V31.43H137.888ZM151.124 35L150.632 35.085L150.703 35.5H151.124V35ZM150.249 29.925L150.742 29.84L150.671 29.425H150.249V29.925ZM145.629 29.925V29.425H145.203L145.136 29.8467L145.629 29.925ZM144.824 35V35.5H145.251L145.318 35.0783L144.824 35ZM141.674 35L141.182 34.9127L141.078 35.5H141.674V35ZM145.559 13.09V12.59H145.14L145.067 13.0027L145.559 13.09ZM150.144 13.09L150.636 12.9966L150.558 12.59H150.144V13.09ZM154.309 35V35.5H154.913L154.801 34.9066L154.309 35ZM146.014 27.37L145.521 27.2922L145.43 27.87H146.014V27.37ZM149.829 27.37V27.87H150.423L150.322 27.2849L149.829 27.37ZM147.834 15.82L148.327 15.7349L147.341 15.7422L147.834 15.82ZM151.617 34.915L150.742 29.84L149.757 30.01L150.632 35.085L151.617 34.915ZM150.249 29.425H145.629V30.425H150.249V29.425ZM145.136 29.8467L144.331 34.9217L145.318 35.0783L146.123 30.0033L145.136 29.8467ZM144.824 34.5H141.674V35.5H144.824V34.5ZM142.167 35.0873L146.052 13.1773L145.067 13.0027L141.182 34.9127L142.167 35.0873ZM145.559 13.59H150.144V12.59H145.559V13.59ZM149.653 13.1834L153.818 35.0934L154.801 34.9066L150.636 12.9966L149.653 13.1834ZM154.309 34.5H151.124V35.5H154.309V34.5ZM146.014 27.87H149.829V26.87H146.014V27.87ZM150.322 27.2849L148.327 15.7349L147.342 15.9051L149.337 27.4551L150.322 27.2849ZM147.341 15.7422L145.521 27.2922L146.508 27.4478L148.328 15.8978L147.341 15.7422ZM158.641 32.445H158.141V32.945H158.641V32.445ZM164.066 32.445H164.566V31.945H164.066V32.445ZM164.066 35V35.5H164.566V35H164.066ZM155.491 35H154.991V35.5H155.491V35ZM155.491 13.09V12.59H154.991V13.09H155.491ZM158.641 13.09H159.141V12.59H158.641V13.09ZM158.641 32.945H164.066V31.945H158.641V32.945ZM163.566 32.445V35H164.566V32.445H163.566ZM164.066 34.5H155.491V35.5H164.066V34.5ZM155.991 35V13.09H154.991V35H155.991ZM155.491 13.59H158.641V12.59H155.491V13.59ZM158.141 13.09V32.445H159.141V13.09H158.141Z" fill="white"/>
</g>
<defs>
<filter id="filter0_d" x="0.5" y="0.5" width="175" height="51" filterUnits="userSpaceOnUse" color-interpolation-filters="sRGB">
<feFlood flood-opacity="0" result="BackgroundImageFix"/>
<feColorMatrix in="SourceAlpha" type="matrix" values="0 0 0 0 0 0 0 0 0 0 0 0 0 0 0 0 0 0 127 0"/>
<feOffset dy="1"/>
<feGaussianBlur stdDeviation="2"/>
<feColorMatrix type="matrix" values="0 0 0 0 0 0 0 0 0 0 0 0 0 0 0 0 0 0 0.25 0"/>
<feBlend mode="normal" in2="BackgroundImageFix" result="effect1_dropShadow"/>
<feBlend mode="normal" in="SourceGraphic" in2="effect1_dropShadow" result="shape"/>
</filter>
<filter id="filter1_d" x="6.32" y="7.59" width="166.246" height="38.945" filterUnits="userSpaceOnUse" color-interpolation-filters="sRGB">
<feFlood flood-opacity="0" result="BackgroundImageFix"/>
<feColorMatrix in="SourceAlpha" type="matrix" values="0 0 0 0 0 0 0 0 0 0 0 0 0 0 0 0 0 0 127 0"/>
<feOffset dy="3"/>
<feGaussianBlur stdDeviation="4"/>
<feColorMatrix type="matrix" values="0 0 0 0 0 0 0 0 0 0 0 0 0 0 0 0 0 0 0.49 0"/>
<feBlend mode="normal" in2="BackgroundImageFix" result="effect1_dropShadow"/>
<feBlend mode="normal" in="SourceGraphic" in2="effect1_dropShadow" result="shape"/>
</filter>
</defs>
</svg>
