<svg width="176" height="53" viewBox="0 0 176 53" fill="none" xmlns="http://www.w3.org/2000/svg">
<g filter="url(#filter0_d)">
<path d="M128 45H6V5H170V45H158" stroke="white" stroke-width="3"/>
</g>
<path d="M140.416 41.712L137.456 47.536C137.349 47.7387 137.248 47.84 137.152 47.84C137.045 47.84 136.944 47.7387 136.848 47.536L133.904 41.712V51.712C133.904 51.904 133.808 52 133.616 52C133.424 52 133.328 51.904 133.328 51.712V40.576C133.328 40.3947 133.424 40.304 133.616 40.304C133.733 40.304 133.899 40.496 134.112 40.88L137.152 46.992L140.208 40.88C140.421 40.496 140.587 40.304 140.704 40.304C140.896 40.304 140.992 40.3947 140.992 40.576V51.712C140.992 51.904 140.896 52 140.704 52C140.512 52 140.416 51.904 140.416 51.712V41.712ZM147.753 48.928C147.753 48.416 147.651 47.9733 147.449 47.6C147.257 47.216 147.001 46.9173 146.681 46.704C146.361 46.4907 146.014 46.304 145.641 46.144L144.489 45.664C144.105 45.504 143.753 45.328 143.433 45.136C143.113 44.944 142.851 44.6827 142.648 44.352C142.456 44.0107 142.36 43.6053 142.36 43.136C142.36 42.5707 142.451 42.0907 142.633 41.696C142.814 41.2907 143.054 40.9973 143.352 40.816C143.651 40.624 143.945 40.4907 144.233 40.416C144.531 40.3413 144.846 40.304 145.177 40.304C146.115 40.304 146.825 40.5547 147.305 41.056C147.795 41.5573 148.041 42.1867 148.041 42.944C148.041 43.1573 147.945 43.264 147.753 43.264C147.539 43.264 147.433 43.104 147.433 42.784C147.433 42.5813 147.401 42.384 147.337 42.192C147.283 42 147.187 41.7973 147.049 41.584C146.91 41.3707 146.681 41.2 146.361 41.072C146.051 40.944 145.673 40.88 145.225 40.88C144.947 40.88 144.686 40.912 144.441 40.976C144.206 41.04 143.966 41.152 143.72 41.312C143.486 41.4613 143.294 41.696 143.145 42.016C143.006 42.3253 142.937 42.6987 142.937 43.136C142.937 43.52 143.033 43.8507 143.225 44.128C143.427 44.4053 143.689 44.6293 144.009 44.8C144.329 44.9707 144.681 45.1307 145.065 45.28C145.449 45.4187 145.827 45.5787 146.201 45.76C146.585 45.9413 146.937 46.1493 147.257 46.384C147.577 46.6187 147.833 46.944 148.025 47.36C148.227 47.7653 148.329 48.2453 148.329 48.8C148.329 49.9413 148.046 50.7787 147.481 51.312C146.915 51.8347 146.163 52.096 145.225 52.096C144.297 52.096 143.539 51.8453 142.952 51.344C142.366 50.832 142.072 50.2027 142.072 49.456C142.072 49.2427 142.174 49.136 142.377 49.136C142.515 49.136 142.606 49.232 142.648 49.424C142.713 49.7013 142.777 49.9307 142.84 50.112C142.905 50.2827 143.022 50.496 143.192 50.752C143.363 50.9973 143.609 51.1893 143.929 51.328C144.259 51.456 144.659 51.52 145.129 51.52C145.971 51.52 146.617 51.3013 147.065 50.864C147.523 50.416 147.753 49.7707 147.753 48.928ZM149.502 51.712V40.576C149.502 40.416 149.598 40.3253 149.79 40.304H152.622C153.571 40.304 154.328 40.5707 154.894 41.104C155.47 41.6267 155.758 42.4587 155.758 43.6V43.792C155.758 44.9333 155.47 45.7707 154.894 46.304C154.328 46.8373 153.571 47.104 152.622 47.104H150.078V51.712C150.078 51.904 149.982 52 149.79 52C149.598 52 149.502 51.904 149.502 51.712ZM152.622 40.88H150.078V46.528H152.622C153.443 46.528 154.072 46.2987 154.51 45.84C154.958 45.3813 155.182 44.6987 155.182 43.792V43.6C155.182 42.6933 154.958 42.016 154.51 41.568C154.072 41.1093 153.443 40.88 152.622 40.88Z" fill="black"/>
<g filter="url(#filter1_d)">
<path d="M22.585 35H19.82V13.09H23.285L27.03 26.67L30.775 13.09H34.24V35H31.475V18.97L28.465 30.24H25.595L22.585 19.005V35ZM35.0669 35V30.695H38.6019V35H35.0669ZM48.7018 31.43V26.075C48.7018 25.655 48.6318 25.3867 48.4918 25.27C48.3752 25.13 48.1068 25.06 47.6868 25.06H45.0968C42.9735 25.06 41.9118 24.0217 41.9118 21.945V16.17C41.9118 14.1167 42.9968 13.09 45.1668 13.09H48.5968C50.7668 13.09 51.8518 14.1167 51.8518 16.17V19.39H48.6668V16.66C48.6668 16.24 48.5968 15.9717 48.4568 15.855C48.3168 15.715 48.0368 15.645 47.6168 15.645H46.1468C45.7268 15.645 45.4468 15.715 45.3068 15.855C45.1668 15.9717 45.0968 16.24 45.0968 16.66V21.525C45.0968 21.945 45.1668 22.225 45.3068 22.365C45.4468 22.4817 45.7268 22.54 46.1468 22.54H48.7018C50.8485 22.54 51.9218 23.5667 51.9218 25.62V31.92C51.9218 33.9733 50.8252 35 48.6318 35H45.2368C43.0668 35 41.9818 33.9733 41.9818 31.92V28.7H45.1668V31.43C45.1668 31.85 45.2368 32.13 45.3768 32.27C45.5168 32.3867 45.7968 32.445 46.2168 32.445H47.6868C48.1068 32.445 48.3752 32.3867 48.4918 32.27C48.6318 32.13 48.7018 31.85 48.7018 31.43ZM60.9983 35L60.1233 29.925H55.5033L54.6983 35H51.5483L55.4333 13.09H60.0183L64.1833 35H60.9983ZM55.8883 27.37H59.7033L57.7083 15.82L55.8883 27.37ZM72.1201 13.09H75.0251V35H71.8401L67.2201 19.18V35H64.3151V13.09H67.6401L72.1201 28.455V13.09ZM79.5292 13.09H86.7042C88.8742 13.09 89.9592 14.1167 89.9592 16.17V23.45C89.9592 25.5033 88.8742 26.53 86.7042 26.53H82.6792V35H79.5292V13.09ZM86.8092 22.96V16.66C86.8092 16.24 86.7392 15.9717 86.5992 15.855C86.4592 15.715 86.1792 15.645 85.7592 15.645H82.6792V24.01H85.7592C86.1792 24.01 86.4592 23.94 86.5992 23.8C86.7392 23.66 86.8092 23.38 86.8092 22.96ZM98.7067 35L97.8317 29.925H93.2117L92.4067 35H89.2567L93.1417 13.09H97.7267L101.892 35H98.7067ZM93.5967 27.37H97.4117L95.4167 15.82L93.5967 27.37ZM108.324 31.43V26.075C108.324 25.655 108.254 25.3867 108.114 25.27C107.997 25.13 107.729 25.06 107.309 25.06H104.719C102.595 25.06 101.534 24.0217 101.534 21.945V16.17C101.534 14.1167 102.619 13.09 104.789 13.09H108.219C110.389 13.09 111.474 14.1167 111.474 16.17V19.39H108.289V16.66C108.289 16.24 108.219 15.9717 108.079 15.855C107.939 15.715 107.659 15.645 107.239 15.645H105.769C105.349 15.645 105.069 15.715 104.929 15.855C104.789 15.9717 104.719 16.24 104.719 16.66V21.525C104.719 21.945 104.789 22.225 104.929 22.365C105.069 22.4817 105.349 22.54 105.769 22.54H108.324C110.47 22.54 111.544 23.5667 111.544 25.62V31.92C111.544 33.9733 110.447 35 108.254 35H104.859C102.689 35 101.604 33.9733 101.604 31.92V28.7H104.789V31.43C104.789 31.85 104.859 32.13 104.999 32.27C105.139 32.3867 105.419 32.445 105.839 32.445H107.309C107.729 32.445 107.997 32.3867 108.114 32.27C108.254 32.13 108.324 31.85 108.324 31.43ZM122.65 19.95H119.43V16.59C119.43 16.17 119.36 15.9017 119.22 15.785C119.103 15.645 118.835 15.575 118.415 15.575H116.63C116.21 15.575 115.93 15.645 115.79 15.785C115.65 15.9017 115.58 16.17 115.58 16.59V31.535C115.58 31.955 115.65 32.235 115.79 32.375C115.93 32.4917 116.21 32.55 116.63 32.55H118.415C118.835 32.55 119.103 32.4917 119.22 32.375C119.36 32.235 119.43 31.955 119.43 31.535V28.21H122.65V31.92C122.65 33.9967 121.553 35.035 119.36 35.035H115.65C113.48 35.035 112.395 33.9967 112.395 31.92V16.17C112.395 14.1167 113.48 13.09 115.65 13.09H119.36C121.553 13.09 122.65 14.1167 122.65 16.17V19.95ZM130.838 13.09H134.023V31.92C134.023 33.9733 132.927 35 130.733 35H126.848C124.655 35 123.558 33.9733 123.558 31.92V13.09H126.743V31.43C126.743 31.85 126.813 32.13 126.953 32.27C127.093 32.3867 127.373 32.445 127.793 32.445H129.788C130.232 32.445 130.512 32.3867 130.628 32.27C130.768 32.13 130.838 31.85 130.838 31.43V13.09ZM143.524 35L142.649 29.925H138.029L137.224 35H134.074L137.959 13.09H142.544L146.709 35H143.524ZM138.414 27.37H142.229L140.234 15.82L138.414 27.37ZM149.991 32.445H155.416V35H146.841V13.09H149.991V32.445Z" fill="white"/>
<path d="M22.585 35V35.5H23.085V35H22.585ZM19.82 35H19.32V35.5H19.82V35ZM19.82 13.09V12.59H19.32V13.09H19.82ZM23.285 13.09L23.767 12.9571L23.6658 12.59H23.285V13.09ZM27.03 26.67L26.548 26.8029L27.03 28.5508L27.512 26.8029L27.03 26.67ZM30.775 13.09V12.59H30.3942L30.293 12.9571L30.775 13.09ZM34.24 13.09H34.74V12.59H34.24V13.09ZM34.24 35V35.5H34.74V35H34.24ZM31.475 35H30.975V35.5H31.475V35ZM31.475 18.97H31.975L30.9919 18.841L31.475 18.97ZM28.465 30.24V30.74H28.849L28.9481 30.369L28.465 30.24ZM25.595 30.24L25.112 30.3694L25.2113 30.74H25.595V30.24ZM22.585 19.005L23.068 18.8756L22.085 19.005H22.585ZM22.585 34.5H19.82V35.5H22.585V34.5ZM20.32 35V13.09H19.32V35H20.32ZM19.82 13.59H23.285V12.59H19.82V13.59ZM22.803 13.2229L26.548 26.8029L27.512 26.5371L23.767 12.9571L22.803 13.2229ZM27.512 26.8029L31.257 13.2229L30.293 12.9571L26.548 26.5371L27.512 26.8029ZM30.775 13.59H34.24V12.59H30.775V13.59ZM33.74 13.09V35H34.74V13.09H33.74ZM34.24 34.5H31.475V35.5H34.24V34.5ZM31.975 35V18.97H30.975V35H31.975ZM30.9919 18.841L27.9819 30.111L28.9481 30.369L31.9581 19.099L30.9919 18.841ZM28.465 29.74H25.595V30.74H28.465V29.74ZM26.078 30.1106L23.068 18.8756L22.102 19.1344L25.112 30.3694L26.078 30.1106ZM22.085 19.005V35H23.085V19.005H22.085ZM35.0669 35H34.5669V35.5H35.0669V35ZM35.0669 30.695V30.195H34.5669V30.695H35.0669ZM38.6019 30.695H39.1019V30.195H38.6019V30.695ZM38.6019 35V35.5H39.1019V35H38.6019ZM35.5669 35V30.695H34.5669V35H35.5669ZM35.0669 31.195H38.6019V30.195H35.0669V31.195ZM38.1019 30.695V35H39.1019V30.695H38.1019ZM38.6019 34.5H35.0669V35.5H38.6019V34.5ZM48.4918 25.27L48.1077 25.5901L48.1368 25.625L48.1717 25.6541L48.4918 25.27ZM51.8518 19.39V19.89H52.3518V19.39H51.8518ZM48.6668 19.39H48.1668V19.89H48.6668V19.39ZM48.4568 15.855L48.1033 16.2086L48.1193 16.2246L48.1367 16.2391L48.4568 15.855ZM45.3068 15.855L45.6269 16.2391L45.6444 16.2246L45.6604 16.2086L45.3068 15.855ZM45.3068 22.365L44.9533 22.7186L44.9693 22.7346L44.9867 22.7491L45.3068 22.365ZM41.9818 28.7V28.2H41.4818V28.7H41.9818ZM45.1668 28.7H45.6668V28.2H45.1668V28.7ZM45.3768 32.27L45.0233 32.6236L45.0393 32.6396L45.0567 32.6541L45.3768 32.27ZM48.4918 32.27L48.8454 32.6236L48.8454 32.6236L48.4918 32.27ZM49.2018 31.43V26.075H48.2018V31.43H49.2018ZM49.2018 26.075C49.2018 25.8419 49.1829 25.6232 49.1331 25.4325C49.0847 25.2469 48.994 25.0376 48.8119 24.8859L48.1717 25.6541C48.1297 25.619 48.1439 25.6022 48.1655 25.685C48.1858 25.7626 48.2018 25.8881 48.2018 26.075H49.2018ZM48.8759 24.9499C48.7242 24.7678 48.5149 24.6771 48.3293 24.6287C48.1386 24.5789 47.92 24.56 47.6868 24.56V25.56C47.8737 25.56 47.9992 25.5761 48.0769 25.5963C48.1596 25.6179 48.1428 25.6322 48.1077 25.5901L48.8759 24.9499ZM47.6868 24.56H45.0968V25.56H47.6868V24.56ZM45.0968 24.56C44.1095 24.56 43.4613 24.3186 43.0577 23.9238C42.6561 23.531 42.4118 22.9034 42.4118 21.945H41.4118C41.4118 23.0633 41.6984 23.9931 42.3585 24.6387C43.0165 25.2823 43.9609 25.56 45.0968 25.56V24.56ZM42.4118 21.945V16.17H41.4118V21.945H42.4118ZM42.4118 16.17C42.4118 15.2277 42.6595 14.6109 43.0692 14.2232C43.4842 13.8305 44.1522 13.59 45.1668 13.59V12.59C44.0114 12.59 43.052 12.8628 42.3819 13.4968C41.7067 14.1357 41.4118 15.059 41.4118 16.17H42.4118ZM45.1668 13.59H48.5968V12.59H45.1668V13.59ZM48.5968 13.59C49.6114 13.59 50.2795 13.8305 50.6944 14.2232C51.1042 14.6109 51.3518 15.2277 51.3518 16.17H52.3518C52.3518 15.059 52.057 14.1357 51.3817 13.4968C50.7117 12.8628 49.7522 12.59 48.5968 12.59V13.59ZM51.3518 16.17V19.39H52.3518V16.17H51.3518ZM51.8518 18.89H48.6668V19.89H51.8518V18.89ZM49.1668 19.39V16.66H48.1668V19.39H49.1668ZM49.1668 16.66C49.1668 16.4269 49.1479 16.2082 49.0981 16.0175C49.0497 15.8319 48.959 15.6226 48.7769 15.4709L48.1367 16.2391C48.0947 16.204 48.1089 16.1872 48.1305 16.27C48.1508 16.3476 48.1668 16.4731 48.1668 16.66H49.1668ZM48.8104 15.5014C48.6535 15.3445 48.4532 15.26 48.2631 15.2124C48.07 15.1641 47.851 15.145 47.6168 15.145V16.145C47.8027 16.145 47.9337 16.1609 48.0206 16.1826C48.1104 16.205 48.1202 16.2255 48.1033 16.2086L48.8104 15.5014ZM47.6168 15.145H46.1468V16.145H47.6168V15.145ZM46.1468 15.145C45.9127 15.145 45.6937 15.1641 45.5006 15.2124C45.3104 15.26 45.1102 15.3445 44.9533 15.5014L45.6604 16.2086C45.6435 16.2255 45.6532 16.205 45.7431 16.1826C45.83 16.1609 45.961 16.145 46.1468 16.145V15.145ZM44.9867 15.4709C44.8047 15.6226 44.7139 15.8319 44.6655 16.0175C44.6158 16.2082 44.5968 16.4269 44.5968 16.66H45.5968C45.5968 16.4731 45.6129 16.3476 45.6331 16.27C45.6547 16.1872 45.669 16.204 45.6269 16.2391L44.9867 15.4709ZM44.5968 16.66V21.525H45.5968V16.66H44.5968ZM44.5968 21.525C44.5968 21.7591 44.616 21.9781 44.6643 22.1713C44.7118 22.3614 44.7963 22.5616 44.9533 22.7186L45.6604 22.0114C45.6773 22.0284 45.6569 22.0186 45.6344 21.9287C45.6127 21.8419 45.5968 21.7109 45.5968 21.525H44.5968ZM44.9867 22.7491C45.1456 22.8815 45.3409 22.9485 45.5199 22.9857C45.705 23.0243 45.9169 23.04 46.1468 23.04V22.04C45.9568 22.04 45.8187 22.0265 45.7238 22.0068C45.6228 21.9857 45.608 21.9651 45.6269 21.9809L44.9867 22.7491ZM46.1468 23.04H48.7018V22.04H46.1468V23.04ZM48.7018 23.04C49.7035 23.04 50.362 23.2799 50.7712 23.6713C51.1763 24.0588 51.4218 24.6762 51.4218 25.62H52.4218C52.4218 24.5105 52.1307 23.5879 51.4624 22.9487C50.7983 22.3134 49.8468 22.04 48.7018 22.04V23.04ZM51.4218 25.62V31.92H52.4218V25.62H51.4218ZM51.4218 31.92C51.4218 32.8608 51.1722 33.4769 50.7576 33.865C50.3369 34.2589 49.6593 34.5 48.6318 34.5V35.5C49.7977 35.5 50.7651 35.2278 51.441 34.595C52.1232 33.9564 52.4218 33.0325 52.4218 31.92H51.4218ZM48.6318 34.5H45.2368V35.5H48.6318V34.5ZM45.2368 34.5C44.2222 34.5 43.5542 34.2595 43.1392 33.8668C42.7295 33.4791 42.4818 32.8623 42.4818 31.92H41.4818C41.4818 33.031 41.7767 33.9543 42.4519 34.5932C43.122 35.2272 44.0814 35.5 45.2368 35.5V34.5ZM42.4818 31.92V28.7H41.4818V31.92H42.4818ZM41.9818 29.2H45.1668V28.2H41.9818V29.2ZM44.6668 28.7V31.43H45.6668V28.7H44.6668ZM44.6668 31.43C44.6668 31.6641 44.686 31.8831 44.7343 32.0763C44.7818 32.2664 44.8663 32.4666 45.0233 32.6236L45.7304 31.9164C45.7473 31.9334 45.7269 31.9236 45.7044 31.8337C45.6827 31.7469 45.6668 31.6159 45.6668 31.43H44.6668ZM45.0567 32.6541C45.2156 32.7865 45.4109 32.8535 45.5899 32.8907C45.775 32.9293 45.9869 32.945 46.2168 32.945V31.945C46.0268 31.945 45.8887 31.9315 45.7938 31.9118C45.6928 31.8907 45.678 31.8701 45.6969 31.8859L45.0567 32.6541ZM46.2168 32.945H47.6868V31.945H46.2168V32.945ZM47.6868 32.945C47.9159 32.945 48.127 32.9295 48.3093 32.8898C48.4814 32.8524 48.6878 32.7811 48.8454 32.6236L48.1383 31.9164C48.1792 31.8756 48.1931 31.8917 48.0969 31.9127C48.0108 31.9314 47.8778 31.945 47.6868 31.945V32.945ZM48.8454 32.6236C49.0023 32.4666 49.0869 32.2664 49.1344 32.0763C49.1827 31.8831 49.2018 31.6641 49.2018 31.43H48.2018C48.2018 31.6159 48.186 31.7469 48.1643 31.8337C48.1418 31.9236 48.1213 31.9334 48.1383 31.9164L48.8454 32.6236ZM60.9983 35L60.5056 35.085L60.5771 35.5H60.9983V35ZM60.1233 29.925L60.616 29.84L60.5445 29.425H60.1233V29.925ZM55.5033 29.925V29.425H55.0764L55.0095 29.8467L55.5033 29.925ZM54.6983 35V35.5H55.1253L55.1921 35.0783L54.6983 35ZM51.5483 35L51.056 34.9127L50.9519 35.5H51.5483V35ZM55.4333 13.09V12.59H55.0142L54.941 13.0027L55.4333 13.09ZM60.0183 13.09L60.5095 12.9966L60.4322 12.59H60.0183V13.09ZM64.1833 35V35.5H64.7873L64.6745 34.9066L64.1833 35ZM55.8883 27.37L55.3944 27.2922L55.3034 27.87H55.8883V27.37ZM59.7033 27.37V27.87H60.2971L60.196 27.2849L59.7033 27.37ZM57.7083 15.82L58.201 15.7349L57.2144 15.7422L57.7083 15.82ZM61.491 34.915L60.616 29.84L59.6306 30.01L60.5056 35.085L61.491 34.915ZM60.1233 29.425H55.5033V30.425H60.1233V29.425ZM55.0095 29.8467L54.2045 34.9217L55.1921 35.0783L55.9971 30.0033L55.0095 29.8467ZM54.6983 34.5H51.5483V35.5H54.6983V34.5ZM52.0406 35.0873L55.9256 13.1773L54.941 13.0027L51.056 34.9127L52.0406 35.0873ZM55.4333 13.59H60.0183V12.59H55.4333V13.59ZM59.5271 13.1834L63.6921 35.0934L64.6745 34.9066L60.5095 12.9966L59.5271 13.1834ZM64.1833 34.5H60.9983V35.5H64.1833V34.5ZM55.8883 27.87H59.7033V26.87H55.8883V27.87ZM60.196 27.2849L58.201 15.7349L57.2156 15.9051L59.2106 27.4551L60.196 27.2849ZM57.2144 15.7422L55.3944 27.2922L56.3822 27.4478L58.2022 15.8978L57.2144 15.7422ZM72.1201 13.09V12.59H71.6201V13.09H72.1201ZM75.0251 13.09H75.5251V12.59H75.0251V13.09ZM75.0251 35V35.5H75.5251V35H75.0251ZM71.8401 35L71.3602 35.1402L71.4653 35.5H71.8401V35ZM67.2201 19.18L67.7001 19.0398L66.7201 19.18H67.2201ZM67.2201 35V35.5H67.7201V35H67.2201ZM64.3151 35H63.8151V35.5H64.3151V35ZM64.3151 13.09V12.59H63.8151V13.09H64.3151ZM67.6401 13.09L68.1201 12.95L68.0152 12.59H67.6401V13.09ZM72.1201 28.455L71.6401 28.595L72.6201 28.455H72.1201ZM72.1201 13.59H75.0251V12.59H72.1201V13.59ZM74.5251 13.09V35H75.5251V13.09H74.5251ZM75.0251 34.5H71.8401V35.5H75.0251V34.5ZM72.3201 34.8598L67.7001 19.0398L66.7402 19.3202L71.3602 35.1402L72.3201 34.8598ZM66.7201 19.18V35H67.7201V19.18H66.7201ZM67.2201 34.5H64.3151V35.5H67.2201V34.5ZM64.8151 35V13.09H63.8151V35H64.8151ZM64.3151 13.59H67.6401V12.59H64.3151V13.59ZM67.1601 13.23L71.6401 28.595L72.6001 28.315L68.1201 12.95L67.1601 13.23ZM72.6201 28.455V13.09H71.6201V28.455H72.6201ZM79.5292 13.09V12.59H79.0292V13.09H79.5292ZM82.6792 26.53V26.03H82.1792V26.53H82.6792ZM82.6792 35V35.5H83.1792V35H82.6792ZM79.5292 35H79.0292V35.5H79.5292V35ZM86.5992 15.855L86.2456 16.2086L86.2617 16.2246L86.2791 16.2391L86.5992 15.855ZM82.6792 15.645V15.145H82.1792V15.645H82.6792ZM82.6792 24.01H82.1792V24.51H82.6792V24.01ZM86.5992 23.8L86.2456 23.4464L86.2456 23.4464L86.5992 23.8ZM79.5292 13.59H86.7042V12.59H79.5292V13.59ZM86.7042 13.59C87.7188 13.59 88.3868 13.8305 88.8018 14.2232C89.2116 14.6109 89.4592 15.2277 89.4592 16.17H90.4592C90.4592 15.059 90.1643 14.1357 89.4891 13.4968C88.8191 12.8628 87.8596 12.59 86.7042 12.59V13.59ZM89.4592 16.17V23.45H90.4592V16.17H89.4592ZM89.4592 23.45C89.4592 24.3923 89.2116 25.0091 88.8018 25.3968C88.3868 25.7895 87.7188 26.03 86.7042 26.03V27.03C87.8596 27.03 88.8191 26.7572 89.4891 26.1232C90.1643 25.4843 90.4592 24.561 90.4592 23.45H89.4592ZM86.7042 26.03H82.6792V27.03H86.7042V26.03ZM82.1792 26.53V35H83.1792V26.53H82.1792ZM82.6792 34.5H79.5292V35.5H82.6792V34.5ZM80.0292 35V13.09H79.0292V35H80.0292ZM87.3092 22.96V16.66H86.3092V22.96H87.3092ZM87.3092 16.66C87.3092 16.4269 87.2902 16.2082 87.2405 16.0175C87.1921 15.8319 87.1013 15.6226 86.9193 15.4709L86.2791 16.2391C86.237 16.204 86.2513 16.1872 86.2729 16.27C86.2931 16.3476 86.3092 16.4731 86.3092 16.66H87.3092ZM86.9527 15.5014C86.7958 15.3445 86.5956 15.26 86.4054 15.2124C86.2123 15.1641 85.9933 15.145 85.7592 15.145V16.145C85.945 16.145 86.0761 16.1609 86.1629 16.1826C86.2528 16.205 86.2626 16.2255 86.2456 16.2086L86.9527 15.5014ZM85.7592 15.145H82.6792V16.145H85.7592V15.145ZM82.1792 15.645V24.01H83.1792V15.645H82.1792ZM82.6792 24.51H85.7592V23.51H82.6792V24.51ZM85.7592 24.51C85.9933 24.51 86.2123 24.4909 86.4054 24.4426C86.5956 24.395 86.7958 24.3105 86.9527 24.1536L86.2456 23.4464C86.2626 23.4295 86.2528 23.45 86.1629 23.4724C86.0761 23.4941 85.945 23.51 85.7592 23.51V24.51ZM86.9527 24.1536C87.1097 23.9966 87.1942 23.7964 87.2418 23.6063C87.29 23.4131 87.3092 23.1941 87.3092 22.96H86.3092C86.3092 23.1459 86.2933 23.2769 86.2716 23.3637C86.2491 23.4536 86.2287 23.4634 86.2456 23.4464L86.9527 24.1536ZM98.7067 35L98.214 35.085L98.2855 35.5H98.7067V35ZM97.8317 29.925L98.3244 29.84L98.2529 29.425H97.8317V29.925ZM93.2117 29.925V29.425H92.7848L92.7179 29.8467L93.2117 29.925ZM92.4067 35V35.5H92.8337L92.9005 35.0783L92.4067 35ZM89.2567 35L88.7644 34.9127L88.6603 35.5H89.2567V35ZM93.1417 13.09V12.59H92.7226L92.6494 13.0027L93.1417 13.09ZM97.7267 13.09L98.2179 12.9966L98.1406 12.59H97.7267V13.09ZM101.892 35V35.5H102.496L102.383 34.9066L101.892 35ZM93.5967 27.37L93.1028 27.2922L93.0118 27.87H93.5967V27.37ZM97.4117 27.37V27.87H98.0055L97.9044 27.2849L97.4117 27.37ZM95.4167 15.82L95.9094 15.7349L94.9228 15.7422L95.4167 15.82ZM99.1994 34.915L98.3244 29.84L97.339 30.01L98.214 35.085L99.1994 34.915ZM97.8317 29.425H93.2117V30.425H97.8317V29.425ZM92.7179 29.8467L91.9129 34.9217L92.9005 35.0783L93.7055 30.0033L92.7179 29.8467ZM92.4067 34.5H89.2567V35.5H92.4067V34.5ZM89.749 35.0873L93.634 13.1773L92.6494 13.0027L88.7644 34.9127L89.749 35.0873ZM93.1417 13.59H97.7267V12.59H93.1417V13.59ZM97.2355 13.1834L101.401 35.0934L102.383 34.9066L98.2179 12.9966L97.2355 13.1834ZM101.892 34.5H98.7067V35.5H101.892V34.5ZM93.5967 27.87H97.4117V26.87H93.5967V27.87ZM97.9044 27.2849L95.9094 15.7349L94.924 15.9051L96.919 27.4551L97.9044 27.2849ZM94.9228 15.7422L93.1028 27.2922L94.0906 27.4478L95.9106 15.8978L94.9228 15.7422ZM108.114 25.27L107.729 25.5901L107.759 25.625L107.793 25.6541L108.114 25.27ZM111.474 19.39V19.89H111.974V19.39H111.474ZM108.289 19.39H107.789V19.89H108.289V19.39ZM108.079 15.855L107.725 16.2086L107.741 16.2246L107.758 16.2391L108.079 15.855ZM104.929 15.855L105.249 16.2391L105.266 16.2246L105.282 16.2086L104.929 15.855ZM104.929 22.365L104.575 22.7186L104.591 22.7346L104.608 22.7491L104.929 22.365ZM101.604 28.7V28.2H101.104V28.7H101.604ZM104.789 28.7H105.289V28.2H104.789V28.7ZM104.999 32.27L104.645 32.6236L104.661 32.6396L104.678 32.6541L104.999 32.27ZM108.114 32.27L108.467 32.6236L108.467 32.6236L108.114 32.27ZM108.824 31.43V26.075H107.824V31.43H108.824ZM108.824 26.075C108.824 25.8419 108.805 25.6232 108.755 25.4325C108.706 25.2469 108.616 25.0376 108.434 24.8859L107.793 25.6541C107.751 25.619 107.766 25.6022 107.787 25.685C107.807 25.7626 107.824 25.8881 107.824 26.075H108.824ZM108.498 24.9499C108.346 24.7678 108.137 24.6771 107.951 24.6287C107.76 24.5789 107.542 24.56 107.309 24.56V25.56C107.495 25.56 107.621 25.5761 107.699 25.5963C107.781 25.6179 107.764 25.6322 107.729 25.5901L108.498 24.9499ZM107.309 24.56H104.719V25.56H107.309V24.56ZM104.719 24.56C103.731 24.56 103.083 24.3186 102.679 23.9238C102.278 23.531 102.034 22.9034 102.034 21.945H101.034C101.034 23.0633 101.32 23.9931 101.98 24.6387C102.638 25.2823 103.583 25.56 104.719 25.56V24.56ZM102.034 21.945V16.17H101.034V21.945H102.034ZM102.034 16.17C102.034 15.2277 102.281 14.6109 102.691 14.2232C103.106 13.8305 103.774 13.59 104.789 13.59V12.59C103.633 12.59 102.674 12.8628 102.004 13.4968C101.328 14.1357 101.034 15.059 101.034 16.17H102.034ZM104.789 13.59H108.219V12.59H104.789V13.59ZM108.219 13.59C109.233 13.59 109.901 13.8305 110.316 14.2232C110.726 14.6109 110.974 15.2277 110.974 16.17H111.974C111.974 15.059 111.679 14.1357 111.003 13.4968C110.333 12.8628 109.374 12.59 108.219 12.59V13.59ZM110.974 16.17V19.39H111.974V16.17H110.974ZM111.474 18.89H108.289V19.89H111.474V18.89ZM108.789 19.39V16.66H107.789V19.39H108.789ZM108.789 16.66C108.789 16.4269 108.77 16.2082 108.72 16.0175C108.671 15.8319 108.581 15.6226 108.399 15.4709L107.758 16.2391C107.716 16.204 107.731 16.1872 107.752 16.27C107.772 16.3476 107.789 16.4731 107.789 16.66H108.789ZM108.432 15.5014C108.275 15.3445 108.075 15.26 107.885 15.2124C107.692 15.1641 107.473 15.145 107.239 15.145V16.145C107.424 16.145 107.555 16.1609 107.642 16.1826C107.732 16.205 107.742 16.2255 107.725 16.2086L108.432 15.5014ZM107.239 15.145H105.769V16.145H107.239V15.145ZM105.769 15.145C105.534 15.145 105.315 15.1641 105.122 15.2124C104.932 15.26 104.732 15.3445 104.575 15.5014L105.282 16.2086C105.265 16.2255 105.275 16.205 105.365 16.1826C105.452 16.1609 105.583 16.145 105.769 16.145V15.145ZM104.608 15.4709C104.426 15.6226 104.336 15.8319 104.287 16.0175C104.237 16.2082 104.219 16.4269 104.219 16.66H105.219C105.219 16.4731 105.235 16.3476 105.255 16.27C105.276 16.1872 105.291 16.204 105.249 16.2391L104.608 15.4709ZM104.219 16.66V21.525H105.219V16.66H104.219ZM104.219 21.525C104.219 21.7591 104.238 21.9781 104.286 22.1713C104.333 22.3614 104.418 22.5616 104.575 22.7186L105.282 22.0114C105.299 22.0284 105.279 22.0186 105.256 21.9287C105.234 21.8419 105.219 21.7109 105.219 21.525H104.219ZM104.608 22.7491C104.767 22.8815 104.963 22.9485 105.142 22.9857C105.327 23.0243 105.539 23.04 105.769 23.04V22.04C105.578 22.04 105.44 22.0265 105.345 22.0068C105.244 21.9857 105.23 21.9651 105.249 21.9809L104.608 22.7491ZM105.769 23.04H108.324V22.04H105.769V23.04ZM108.324 23.04C109.325 23.04 109.984 23.2799 110.393 23.6713C110.798 24.0588 111.044 24.6762 111.044 25.62H112.044C112.044 24.5105 111.752 23.5879 111.084 22.9487C110.42 22.3134 109.469 22.04 108.324 22.04V23.04ZM111.044 25.62V31.92H112.044V25.62H111.044ZM111.044 31.92C111.044 32.8608 110.794 33.4769 110.379 33.865C109.959 34.2589 109.281 34.5 108.254 34.5V35.5C109.419 35.5 110.387 35.2278 111.063 34.595C111.745 33.9564 112.044 33.0325 112.044 31.92H111.044ZM108.254 34.5H104.859V35.5H108.254V34.5ZM104.859 34.5C103.844 34.5 103.176 34.2595 102.761 33.8668C102.351 33.4791 102.104 32.8623 102.104 31.92H101.104C101.104 33.031 101.398 33.9543 102.074 34.5932C102.744 35.2272 103.703 35.5 104.859 35.5V34.5ZM102.104 31.92V28.7H101.104V31.92H102.104ZM101.604 29.2H104.789V28.2H101.604V29.2ZM104.289 28.7V31.43H105.289V28.7H104.289ZM104.289 31.43C104.289 31.6641 104.308 31.8831 104.356 32.0763C104.403 32.2664 104.488 32.4666 104.645 32.6236L105.352 31.9164C105.369 31.9334 105.349 31.9236 105.326 31.8337C105.304 31.7469 105.289 31.6159 105.289 31.43H104.289ZM104.678 32.6541C104.837 32.7865 105.033 32.8535 105.212 32.8907C105.397 32.9293 105.609 32.945 105.839 32.945V31.945C105.648 31.945 105.51 31.9315 105.415 31.9118C105.314 31.8907 105.3 31.8701 105.319 31.8859L104.678 32.6541ZM105.839 32.945H107.309V31.945H105.839V32.945ZM107.309 32.945C107.538 32.945 107.749 32.9295 107.931 32.8898C108.103 32.8524 108.31 32.7811 108.467 32.6236L107.76 31.9164C107.801 31.8756 107.815 31.8917 107.719 31.9127C107.632 31.9314 107.499 31.945 107.309 31.945V32.945ZM108.467 32.6236C108.624 32.4666 108.709 32.2664 108.756 32.0763C108.804 31.8831 108.824 31.6641 108.824 31.43H107.824C107.824 31.6159 107.808 31.7469 107.786 31.8337C107.763 31.9236 107.743 31.9334 107.76 31.9164L108.467 32.6236ZM122.65 19.95V20.45H123.15V19.95H122.65ZM119.43 19.95H118.93V20.45H119.43V19.95ZM119.22 15.785L118.836 16.1051L118.865 16.14L118.9 16.1691L119.22 15.785ZM115.79 15.785L116.11 16.1691L116.128 16.1546L116.144 16.1386L115.79 15.785ZM115.79 32.375L115.436 32.7286L115.452 32.7446L115.47 32.7591L115.79 32.375ZM119.22 32.375L118.866 32.0214L118.866 32.0214L119.22 32.375ZM119.43 28.21V27.71H118.93V28.21H119.43ZM122.65 28.21H123.15V27.71H122.65V28.21ZM122.65 19.45H119.43V20.45H122.65V19.45ZM119.93 19.95V16.59H118.93V19.95H119.93ZM119.93 16.59C119.93 16.3569 119.911 16.1382 119.861 15.9475C119.813 15.7619 119.722 15.5526 119.54 15.4009L118.9 16.1691C118.858 16.134 118.872 16.1172 118.894 16.2C118.914 16.2776 118.93 16.4031 118.93 16.59H119.93ZM119.604 15.4649C119.452 15.2828 119.243 15.1921 119.057 15.1437C118.867 15.0939 118.648 15.075 118.415 15.075V16.075C118.602 16.075 118.727 16.0911 118.805 16.1113C118.888 16.1329 118.871 16.1472 118.836 16.1051L119.604 15.4649ZM118.415 15.075H116.63V16.075H118.415V15.075ZM116.63 15.075C116.396 15.075 116.177 15.0941 115.984 15.1424C115.794 15.19 115.593 15.2745 115.436 15.4314L116.144 16.1386C116.127 16.1555 116.136 16.135 116.226 16.1126C116.313 16.0909 116.444 16.075 116.63 16.075V15.075ZM115.47 15.4009C115.288 15.5526 115.197 15.7619 115.149 15.9475C115.099 16.1382 115.08 16.3569 115.08 16.59H116.08C116.08 16.4031 116.096 16.2776 116.116 16.2C116.138 16.1172 116.152 16.134 116.11 16.1691L115.47 15.4009ZM115.08 16.59V31.535H116.08V16.59H115.08ZM115.08 31.535C115.08 31.7691 115.099 31.9881 115.147 32.1813C115.195 32.3714 115.28 32.5716 115.436 32.7286L116.144 32.0214C116.16 32.0384 116.14 32.0286 116.118 31.9387C116.096 31.8519 116.08 31.7209 116.08 31.535H115.08ZM115.47 32.7591C115.629 32.8915 115.824 32.9585 116.003 32.9957C116.188 33.0343 116.4 33.05 116.63 33.05V32.05C116.44 32.05 116.302 32.0365 116.207 32.0168C116.106 31.9957 116.091 31.9751 116.11 31.9909L115.47 32.7591ZM116.63 33.05H118.415V32.05H116.63V33.05ZM118.415 33.05C118.644 33.05 118.855 33.0345 119.037 32.9948C119.21 32.9574 119.416 32.8861 119.574 32.7286L118.866 32.0214C118.907 31.9806 118.921 31.9967 118.825 32.0177C118.739 32.0364 118.606 32.05 118.415 32.05V33.05ZM119.574 32.7286C119.73 32.5716 119.815 32.3714 119.863 32.1813C119.911 31.9881 119.93 31.7691 119.93 31.535H118.93C118.93 31.7209 118.914 31.8519 118.892 31.9387C118.87 32.0286 118.85 32.0384 118.866 32.0214L119.574 32.7286ZM119.93 31.535V28.21H118.93V31.535H119.93ZM119.43 28.71H122.65V27.71H119.43V28.71ZM122.15 28.21V31.92H123.15V28.21H122.15ZM122.15 31.92C122.15 32.8741 121.899 33.4996 121.484 33.8932C121.063 34.2916 120.386 34.535 119.36 34.535V35.535C120.527 35.535 121.495 35.2592 122.171 34.6193C122.852 33.9746 123.15 33.0426 123.15 31.92H122.15ZM119.36 34.535H115.65V35.535H119.36V34.535ZM115.65 34.535C114.637 34.535 113.97 34.2922 113.554 33.895C113.143 33.5017 112.895 32.8755 112.895 31.92H111.895C111.895 33.0411 112.189 33.9724 112.863 34.6175C113.533 35.2586 114.493 35.535 115.65 35.535V34.535ZM112.895 31.92V16.17H111.895V31.92H112.895ZM112.895 16.17C112.895 15.2277 113.143 14.6109 113.552 14.2232C113.967 13.8305 114.635 13.59 115.65 13.59V12.59C114.495 12.59 113.535 12.8628 112.865 13.4968C112.19 14.1357 111.895 15.059 111.895 16.17H112.895ZM115.65 13.59H119.36V12.59H115.65V13.59ZM119.36 13.59C120.387 13.59 121.065 13.8311 121.486 14.225C121.9 14.6131 122.15 15.2292 122.15 16.17H123.15C123.15 15.0575 122.851 14.1336 122.169 13.495C121.493 12.8622 120.526 12.59 119.36 12.59V13.59ZM122.15 16.17V19.95H123.15V16.17H122.15ZM130.838 13.09V12.59H130.338V13.09H130.838ZM134.023 13.09H134.523V12.59H134.023V13.09ZM123.558 13.09V12.59H123.058V13.09H123.558ZM126.743 13.09H127.243V12.59H126.743V13.09ZM126.953 32.27L126.6 32.6236L126.616 32.6396L126.633 32.6541L126.953 32.27ZM130.628 32.27L130.982 32.6236L130.982 32.6236L130.628 32.27ZM130.838 13.59H134.023V12.59H130.838V13.59ZM133.523 13.09V31.92H134.523V13.09H133.523ZM133.523 31.92C133.523 32.8608 133.274 33.4769 132.859 33.865C132.438 34.2589 131.761 34.5 130.733 34.5V35.5C131.899 35.5 132.867 35.2278 133.543 34.595C134.225 33.9564 134.523 33.0325 134.523 31.92H133.523ZM130.733 34.5H126.848V35.5H130.733V34.5ZM126.848 34.5C125.821 34.5 125.143 34.2589 124.723 33.865C124.308 33.4769 124.058 32.8608 124.058 31.92H123.058C123.058 33.0325 123.357 33.9564 124.039 34.595C124.715 35.2278 125.683 35.5 126.848 35.5V34.5ZM124.058 31.92V13.09H123.058V31.92H124.058ZM123.558 13.59H126.743V12.59H123.558V13.59ZM126.243 13.09V31.43H127.243V13.09H126.243ZM126.243 31.43C126.243 31.6641 126.263 31.8831 126.311 32.0763C126.358 32.2664 126.443 32.4666 126.6 32.6236L127.307 31.9164C127.324 31.9334 127.303 31.9236 127.281 31.8337C127.259 31.7469 127.243 31.6159 127.243 31.43H126.243ZM126.633 32.6541C126.792 32.7865 126.987 32.8535 127.166 32.8907C127.352 32.9293 127.563 32.945 127.793 32.945V31.945C127.603 31.945 127.465 31.9315 127.37 31.9118C127.269 31.8907 127.255 31.8701 127.273 31.8859L126.633 32.6541ZM127.793 32.945H129.788V31.945H127.793V32.945ZM129.788 32.945C130.028 32.945 130.246 32.9296 130.433 32.8907C130.606 32.8546 130.821 32.7847 130.982 32.6236L130.275 31.9164C130.319 31.8719 130.335 31.8896 130.229 31.9118C130.135 31.9312 129.992 31.945 129.788 31.945V32.945ZM130.982 32.6236C131.139 32.4666 131.223 32.2664 131.271 32.0763C131.319 31.8831 131.338 31.6641 131.338 31.43H130.338C130.338 31.6159 130.323 31.7469 130.301 31.8337C130.278 31.9236 130.258 31.9334 130.275 31.9164L130.982 32.6236ZM131.338 31.43V13.09H130.338V31.43H131.338ZM143.524 35L143.032 35.085L143.103 35.5H143.524V35ZM142.649 29.925L143.142 29.84L143.071 29.425H142.649V29.925ZM138.029 29.925V29.425H137.603L137.536 29.8467L138.029 29.925ZM137.224 35V35.5H137.651L137.718 35.0783L137.224 35ZM134.074 35L133.582 34.9127L133.478 35.5H134.074V35ZM137.959 13.09V12.59H137.54L137.467 13.0027L137.959 13.09ZM142.544 13.09L143.036 12.9966L142.958 12.59H142.544V13.09ZM146.709 35V35.5H147.313L147.201 34.9066L146.709 35ZM138.414 27.37L137.921 27.2922L137.83 27.87H138.414V27.37ZM142.229 27.37V27.87H142.823L142.722 27.2849L142.229 27.37ZM140.234 15.82L140.727 15.7349L139.741 15.7422L140.234 15.82ZM144.017 34.915L143.142 29.84L142.157 30.01L143.032 35.085L144.017 34.915ZM142.649 29.425H138.029V30.425H142.649V29.425ZM137.536 29.8467L136.731 34.9217L137.718 35.0783L138.523 30.0033L137.536 29.8467ZM137.224 34.5H134.074V35.5H137.224V34.5ZM134.567 35.0873L138.452 13.1773L137.467 13.0027L133.582 34.9127L134.567 35.0873ZM137.959 13.59H142.544V12.59H137.959V13.59ZM142.053 13.1834L146.218 35.0934L147.201 34.9066L143.036 12.9966L142.053 13.1834ZM146.709 34.5H143.524V35.5H146.709V34.5ZM138.414 27.87H142.229V26.87H138.414V27.87ZM142.722 27.2849L140.727 15.7349L139.742 15.9051L141.737 27.4551L142.722 27.2849ZM139.741 15.7422L137.921 27.2922L138.908 27.4478L140.728 15.8978L139.741 15.7422ZM149.991 32.445H149.491V32.945H149.991V32.445ZM155.416 32.445H155.916V31.945H155.416V32.445ZM155.416 35V35.5H155.916V35H155.416ZM146.841 35H146.341V35.5H146.841V35ZM146.841 13.09V12.59H146.341V13.09H146.841ZM149.991 13.09H150.491V12.59H149.991V13.09ZM149.991 32.945H155.416V31.945H149.991V32.945ZM154.916 32.445V35H155.916V32.445H154.916ZM155.416 34.5H146.841V35.5H155.416V34.5ZM147.341 35V13.09H146.341V35H147.341ZM146.841 13.59H149.991V12.59H146.841V13.59ZM149.491 13.09V32.445H150.491V13.09H149.491Z" fill="white"/>
</g>
<defs>
<filter id="filter0_d" x="0.5" y="0.5" width="175" height="51" filterUnits="userSpaceOnUse" color-interpolation-filters="sRGB">
<feFlood flood-opacity="0" result="BackgroundImageFix"/>
<feColorMatrix in="SourceAlpha" type="matrix" values="0 0 0 0 0 0 0 0 0 0 0 0 0 0 0 0 0 0 127 0"/>
<feOffset dy="1"/>
<feGaussianBlur stdDeviation="2"/>
<feColorMatrix type="matrix" values="0 0 0 0 0 0 0 0 0 0 0 0 0 0 0 0 0 0 0.25 0"/>
<feBlend mode="normal" in2="BackgroundImageFix" result="effect1_dropShadow"/>
<feBlend mode="normal" in="SourceGraphic" in2="effect1_dropShadow" result="shape"/>
</filter>
<filter id="filter1_d" x="11.32" y="7.59" width="152.596" height="38.945" filterUnits="userSpaceOnUse" color-interpolation-filters="sRGB">
<feFlood flood-opacity="0" result="BackgroundImageFix"/>
<feColorMatrix in="SourceAlpha" type="matrix" values="0 0 0 0 0 0 0 0 0 0 0 0 0 0 0 0 0 0 127 0"/>
<feOffset dy="3"/>
<feGaussianBlur stdDeviation="4"/>
<feColorMatrix type="matrix" values="0 0 0 0 0 0 0 0 0 0 0 0 0 0 0 0 0 0 0.49 0"/>
<feBlend mode="normal" in2="BackgroundImageFix" result="effect1_dropShadow"/>
<feBlend mode="normal" in="SourceGraphic" in2="effect1_dropShadow" result="shape"/>
</filter>
</defs>
</svg>
